<svg width="45" height="45" viewBox="0 0 45 45" fill="none" xmlns="http://www.w3.org/2000/svg">
<g clip-path="url(#clip0_194_7106)">
<path d="M38.75 10H28.75V12.5H38.75V38.75H28.75V41.25H41.25V12.5C41.25 11.837 40.9866 11.2011 40.5178 10.7322C40.0489 10.2634 39.413 10 38.75 10Z" fill="#8D181B"/>
<path d="M24.85 3.75H7.65C6.94718 3.75 6.27314 4.0292 5.77617 4.52617C5.2792 5.02314 5 5.69718 5 6.4V41.25H27.5V6.4C27.5 5.69718 27.2208 5.02314 26.7238 4.52617C26.2269 4.0292 25.5528 3.75 24.85 3.75ZM25 38.75H21.25V35H11.25V38.75H7.5V6.4C7.5 6.3803 7.50388 6.3608 7.51142 6.3426C7.51896 6.3244 7.53001 6.30786 7.54393 6.29393C7.55786 6.28001 7.5744 6.26896 7.5926 6.26142C7.6108 6.25388 7.6303 6.25 7.65 6.25H24.85C24.8697 6.25 24.8892 6.25388 24.9074 6.26142C24.9256 6.26896 24.9421 6.28001 24.9561 6.29393C24.97 6.30786 24.981 6.3244 24.9886 6.3426C24.9961 6.3608 25 6.3803 25 6.4V38.75Z" fill="#8D181B"/>
<path d="M10 10H12.5V12.5H10V10Z" fill="#8D181B"/>
<path d="M15 10H17.5V12.5H15V10Z" fill="#8D181B"/>
<path d="M20 10H22.5V12.5H20V10Z" fill="#8D181B"/>
<path d="M10 16.25H12.5V18.75H10V16.25Z" fill="#8D181B"/>
<path d="M15 16.25H17.5V18.75H15V16.25Z" fill="#8D181B"/>
<path d="M20 16.25H22.5V18.75H20V16.25Z" fill="#8D181B"/>
<path d="M10 22.5H12.5V25H10V22.5Z" fill="#8D181B"/>
<path d="M15 22.5H17.5V25H15V22.5Z" fill="#8D181B"/>
<path d="M20 22.5H22.5V25H20V22.5Z" fill="#8D181B"/>
<path d="M10 28.75H12.5V31.25H10V28.75Z" fill="#8D181B"/>
<path d="M15 28.75H17.5V31.25H15V28.75Z" fill="#8D181B"/>
<path d="M20 28.75H22.5V31.25H20V28.75Z" fill="#8D181B"/>
<path d="M28.75 16.25H31.25V18.75H28.75V16.25Z" fill="#8D181B"/>
<path d="M33.75 16.25H36.25V18.75H33.75V16.25Z" fill="#8D181B"/>
<path d="M28.75 22.5H31.25V25H28.75V22.5Z" fill="#8D181B"/>
<path d="M33.75 22.5H36.25V25H33.75V22.5Z" fill="#8D181B"/>
<path d="M28.75 28.75H31.25V31.25H28.75V28.75Z" fill="#8D181B"/>
<path d="M33.75 28.75H36.25V31.25H33.75V28.75Z" fill="#8D181B"/>
</g>
<defs>
<clipPath id="clip0_194_7106">
<rect width="45" height="45" fill="white"/>
</clipPath>
</defs>
</svg>
