<svg width="40" height="40" viewBox="0 0 40 40" fill="none" xmlns="http://www.w3.org/2000/svg">
<path d="M35.0905 28.4287C34.177 22.9762 31.5664 17.951 27.6305 14.0687C26.7688 13.2303 26.3388 12.812 25.3872 12.4253C24.4355 12.037 23.6172 12.037 21.9822 12.037H18.3888C16.7538 12.037 15.9355 12.037 14.9838 12.4253C14.0338 12.812 13.6005 13.2303 12.7405 14.0687C8.80461 17.951 6.19401 22.9762 5.28052 28.4287C4.46885 33.3253 8.98551 37.037 14.0322 37.037H26.3388C31.3872 37.037 35.9055 33.3253 35.0888 28.4287M22.8972 21.902C22.5372 20.5703 20.7022 19.3703 18.5005 20.2687C16.2988 21.167 15.9505 24.0553 19.2788 24.3637C20.7855 24.502 21.7655 24.202 22.6638 25.0503C23.5638 25.897 23.7305 28.2553 21.4322 28.8903C19.1372 29.5253 16.8622 28.5337 16.6155 27.1237M19.9222 18.6903V19.9587M19.9222 29.0853V30.3587M12.2805 7.77534C11.9355 7.27534 11.4372 6.59534 12.4672 6.44201C13.5255 6.28201 14.6238 7.00534 15.7005 6.99201C16.6722 6.97701 17.1672 6.54534 17.7005 5.92867C18.2605 5.28034 19.1272 3.70367 20.1855 3.70367C21.2438 3.70367 22.1105 5.28034 22.6705 5.92867C23.2038 6.54534 23.6989 6.97867 24.6705 6.99034C25.7472 7.00701 26.8455 6.28201 27.9039 6.44034C28.9339 6.59534 28.4355 7.27367 28.0905 7.77367L26.5372 10.0387C25.8705 11.0053 25.5388 11.4887 24.8422 11.7637C24.1455 12.0387 23.2472 12.037 21.4489 12.037H18.9222C17.1222 12.037 16.2238 12.037 15.5288 11.7637C14.8338 11.4903 14.5005 11.0037 13.8338 10.037L12.2805 7.77534Z" stroke="#8D181B" stroke-width="1.5" stroke-linecap="round" stroke-linejoin="round"/>
</svg>
