<svg width="40" height="40" viewBox="0 0 40 40" fill="none" xmlns="http://www.w3.org/2000/svg">
<path d="M19.9999 32.5317L5.23411 26.5247C5.28522 26.552 3.9276 26.0108 2.96289 25.5241C2.96289 26.2504 3.16945 27.5818 3.93723 27.9407L18.3932 33.6752C19.6709 34.207 20.2214 34.207 21.6057 33.6752L36.0616 27.9407C36.7761 27.6476 37.037 26.2673 37.037 25.5241C36.1074 25.9346 34.7912 26.52 34.7657 26.5247L19.9999 32.5317ZM19.9999 7.50323C20.1064 7.61319 20.0787 7.52578 19.9999 7.50323ZM3.93723 21.9338L18.3932 27.6682C19.6709 28.2 20.2214 28.2 21.6057 27.6682L36.0616 21.9338C36.7761 21.6406 37.037 20.2604 37.037 19.5171C36.1074 19.9277 34.7912 20.5131 34.7657 20.5178L19.9999 26.5247L5.23411 20.5178C5.28522 20.5451 3.9276 20.0038 2.96289 19.5171C2.96289 20.2434 3.16945 21.5749 3.93723 21.9338ZM3.93723 15.9269L18.3932 21.6613C19.6709 22.1932 20.2214 22.1932 21.6057 21.6613L36.0616 15.9269C37.1264 15.489 37.1616 13.6267 36.0616 13.0949L21.6057 6.35973C20.4706 5.7659 19.6709 5.7969 18.3931 6.35973L3.93723 13.0949C2.83723 13.7206 2.8021 15.395 3.93723 15.9269ZM19.9999 7.50323L34.7657 14.5108L19.9999 20.002L5.23411 14.5108L19.9999 7.50323Z" fill="#8D181B"/>
</svg>
