<svg width="40" height="40" viewBox="0 0 40 40" fill="none" xmlns="http://www.w3.org/2000/svg">
<path d="M37.0374 37.037H3.7041" stroke="#8D181B" stroke-linecap="round"/>
<path d="M35.3711 37.037V24.537C35.3711 23.874 35.1077 23.2381 34.6389 22.7692C34.17 22.3004 33.5341 22.037 32.8711 22.037H27.8711C27.2081 22.037 26.5722 22.3004 26.1033 22.7692C25.6345 23.2381 25.3711 23.874 25.3711 24.537V37.037V8.70367C25.3711 6.34701 25.3711 5.16867 24.6378 4.43701C23.9078 3.70367 22.7294 3.70367 20.3711 3.70367C18.0128 3.70367 16.8361 3.70367 16.1044 4.43701C15.3711 5.16701 15.3711 6.34534 15.3711 8.70367V37.037V16.2037C15.3711 15.5406 15.1077 14.9047 14.6389 14.4359C14.17 13.9671 13.5341 13.7037 12.8711 13.7037H7.87109C7.20805 13.7037 6.57217 13.9671 6.10333 14.4359C5.63449 14.9047 5.37109 15.5406 5.37109 16.2037V37.037" stroke="#8D181B"/>
</svg>
