<svg width="35" height="25" viewBox="0 0 35 25" fill="none" xmlns="http://www.w3.org/2000/svg">
<path d="M0.75 6.29556C0.75 4.33414 0.75 3.35247 1.13846 2.60617C1.46514 1.97765 1.97765 1.46514 2.60617 1.13846C3.35247 0.75 4.33414 0.75 6.29556 0.75H27.7353C29.6967 0.75 30.6784 0.75 31.4247 1.13846C32.0532 1.46514 32.5657 1.97765 32.8924 2.60617C33.2809 3.35247 33.2809 4.33414 33.2809 6.29556V18.1674C33.2809 20.1288 33.2809 21.1105 32.8924 21.8568C32.5657 22.4853 32.0532 22.9978 31.4247 23.3245C30.6784 23.713 29.6967 23.713 27.7353 23.713H6.29556C4.33414 23.713 3.35247 23.713 2.60617 23.3245C1.97765 22.9978 1.46514 22.4853 1.13846 21.8568C0.75 21.1105 0.75 20.1288 0.75 18.1674V6.29556Z" stroke="#8D181B" stroke-width="1.5"/>
<path d="M0.75 8.4043H33.2809" stroke="#8D181B" stroke-width="1.5"/>
<path d="M6.49097 18.929C7.01939 18.929 7.44776 18.5007 7.44776 17.9722C7.44776 17.4438 7.01939 17.0154 6.49097 17.0154C5.96255 17.0154 5.53418 17.4438 5.53418 17.9722C5.53418 18.5007 5.96255 18.929 6.49097 18.929Z" fill="#8D181B"/>
</svg>
