<svg width="177" height="107" viewBox="0 0 177 107" fill="none" xmlns="http://www.w3.org/2000/svg">
<g opacity="0.5">
<path d="M10.6365 13.9515C10.6365 14.5997 10.107 15.1266 9.45555 15.1266C8.80411 15.1266 8.2746 14.5997 8.2746 13.9515C8.2746 13.3034 8.80411 12.7765 9.45555 12.7765C10.107 12.7765 10.6365 13.3034 10.6365 13.9515Z" fill="#666666"/>
<path d="M23.6373 13.9515C23.6373 14.5997 23.1078 15.1266 22.4564 15.1266C21.805 15.1266 21.2755 14.5997 21.2755 13.9515C21.2755 13.3034 21.805 12.7765 22.4564 12.7765C23.1113 12.7765 23.6373 13.3034 23.6373 13.9515Z" fill="#666666"/>
<path d="M36.3247 13.9515C36.3247 14.5997 35.7951 15.1266 35.1437 15.1266C34.4923 15.1266 33.9628 14.5997 33.9628 13.9515C33.9628 13.3034 34.4923 12.7765 35.1437 12.7765C35.7951 12.7765 36.3247 13.3034 36.3247 13.9515Z" fill="#666666"/>
<path d="M49.1688 13.9515C49.1688 14.5997 48.6392 15.1266 47.9878 15.1266C47.3364 15.1266 46.8069 14.5997 46.8069 13.9515C46.8069 13.3034 47.3364 12.7765 47.9878 12.7765C48.6392 12.7765 49.1688 13.3034 49.1688 13.9515Z" fill="#666666"/>
<path d="M61.7725 13.9515C61.7725 14.5997 61.243 15.1266 60.5915 15.1266C59.9401 15.1266 59.4106 14.5997 59.4106 13.9515C59.4106 13.3034 59.9401 12.7765 60.5915 12.7765C61.243 12.7765 61.7725 13.3034 61.7725 13.9515Z" fill="#666666"/>
<path d="M74.7768 13.9515C74.7768 14.5997 74.2473 15.1266 73.5959 15.1266C72.9444 15.1266 72.4149 14.5997 72.4149 13.9515C72.4149 13.3034 72.9444 12.7765 73.5959 12.7765C74.2473 12.7765 74.7768 13.3034 74.7768 13.9515Z" fill="#666666"/>
<path d="M87.3283 13.9515C87.3283 14.5997 86.7988 15.1266 86.1473 15.1266C85.4959 15.1266 84.9664 14.5997 84.9664 13.9515C84.9664 13.3034 85.4959 12.7765 86.1473 12.7765C86.7988 12.7765 87.3283 13.3034 87.3283 13.9515Z" fill="#666666"/>
<path d="M100.172 13.9515C100.172 14.5997 99.6428 15.1266 98.9914 15.1266C98.34 15.1266 97.8105 14.5997 97.8105 13.9515C97.8105 13.3034 98.34 12.7765 98.9914 12.7765C99.6428 12.7765 100.172 13.3034 100.172 13.9515Z" fill="#666666"/>
<path d="M112.78 13.9515C112.78 14.5997 112.25 15.1266 111.599 15.1266C110.947 15.1266 110.418 14.5997 110.418 13.9515C110.418 13.3034 110.947 12.7765 111.599 12.7765C112.25 12.7765 112.78 13.3034 112.78 13.9515Z" fill="#666666"/>
<path d="M125.78 13.9515C125.78 14.5997 125.251 15.1266 124.599 15.1266C123.948 15.1266 123.419 14.5997 123.419 13.9515C123.419 13.3034 123.948 12.7765 124.599 12.7765C125.251 12.7765 125.78 13.3034 125.78 13.9515Z" fill="#666666"/>
<path d="M138.548 13.9515C138.548 14.5997 138.018 15.1266 137.367 15.1266C136.715 15.1266 136.186 14.5997 136.186 13.9515C136.186 13.3034 136.715 12.7765 137.367 12.7765C138.018 12.7765 138.548 13.3034 138.548 13.9515Z" fill="#666666"/>
<path d="M151.392 13.9515C151.392 14.5997 150.862 15.1266 150.211 15.1266C149.56 15.1266 149.03 14.5997 149.03 13.9515C149.03 13.3034 149.56 12.7765 150.211 12.7765C150.862 12.7765 151.392 13.3034 151.392 13.9515Z" fill="#666666"/>
<path d="M163.999 13.9515C163.999 14.5997 163.47 15.1266 162.818 15.1266C162.167 15.1266 161.637 14.5997 161.637 13.9515C161.637 13.3034 162.167 12.7765 162.818 12.7765C163.47 12.7765 163.999 13.3034 163.999 13.9515Z" fill="#666666"/>
<path d="M177 13.9515C177 14.5997 176.47 15.1266 175.819 15.1266C175.168 15.1266 174.638 14.5997 174.638 13.9515C174.638 13.3034 175.168 12.7765 175.819 12.7765C176.47 12.7765 177 13.3034 177 13.9515Z" fill="#666666"/>
<path d="M10.6365 1.17505C10.6365 1.82324 10.107 2.35011 9.45555 2.35011C8.80411 2.35011 8.2746 1.82324 8.2746 1.17505C8.2746 0.526868 8.80411 0 9.45555 0C10.107 0 10.6365 0.526868 10.6365 1.17505Z" fill="#666666"/>
<path d="M23.6373 1.17505C23.6373 1.82324 23.1078 2.35011 22.4564 2.35011C21.805 2.35011 21.2755 1.82324 21.2755 1.17505C21.2755 0.526868 21.805 0 22.4599 0C23.1113 0 23.6373 0.526868 23.6373 1.17505Z" fill="#666666"/>
<path d="M36.3247 1.17505C36.3247 1.82324 35.7951 2.35011 35.1437 2.35011C34.4923 2.35011 33.9628 1.82324 33.9628 1.17505C33.9628 0.526868 34.4923 0 35.1437 0C35.7951 0 36.3247 0.526868 36.3247 1.17505Z" fill="#666666"/>
<path d="M49.1688 1.17505C49.1688 1.82324 48.6392 2.35011 47.9878 2.35011C47.3364 2.35011 46.8069 1.82324 46.8069 1.17505C46.8069 0.526868 47.3364 0 47.9878 0C48.6392 0 49.1688 0.526868 49.1688 1.17505Z" fill="#666666"/>
<path d="M61.7725 1.17505C61.7725 1.82324 61.243 2.35011 60.5915 2.35011C59.9401 2.35011 59.4106 1.82324 59.4106 1.17505C59.4106 0.526868 59.9436 0 60.595 0C61.2464 0 61.7725 0.526868 61.7725 1.17505Z" fill="#666666"/>
<path d="M74.7768 1.17505C74.7768 1.82324 74.2473 2.35011 73.5959 2.35011C72.9444 2.35011 72.4149 1.82324 72.4149 1.17505C72.4149 0.526868 72.9444 0 73.5959 0C74.2473 0 74.7768 0.526868 74.7768 1.17505Z" fill="#666666"/>
<path d="M87.3283 1.17505C87.3283 1.82324 86.7988 2.35011 86.1473 2.35011C85.4959 2.35011 84.9664 1.82324 84.9664 1.17505C84.9664 0.526868 85.4994 0 86.1508 0C86.8022 0 87.3283 0.526868 87.3283 1.17505Z" fill="#666666"/>
<path d="M100.172 1.17505C100.172 1.82324 99.6428 2.35011 98.9914 2.35011C98.34 2.35011 97.8105 1.82324 97.8105 1.17505C97.8105 0.526868 98.34 0 98.9914 0C99.6428 0 100.172 0.526868 100.172 1.17505Z" fill="#666666"/>
<path d="M112.78 1.17505C112.78 1.82324 112.25 2.35011 111.599 2.35011C110.947 2.35011 110.418 1.82324 110.418 1.17505C110.418 0.526868 110.947 0 111.599 0C112.25 0 112.78 0.526868 112.78 1.17505Z" fill="#666666"/>
<path d="M125.78 1.17505C125.78 1.82324 125.251 2.35011 124.599 2.35011C123.948 2.35011 123.419 1.82324 123.419 1.17505C123.419 0.526868 123.948 0 124.599 0C125.251 0 125.78 0.526868 125.78 1.17505Z" fill="#666666"/>
<path d="M138.548 1.17505C138.548 1.82324 138.018 2.35011 137.367 2.35011C136.715 2.35011 136.186 1.82324 136.186 1.17505C136.186 0.526868 136.715 0 137.367 0C138.018 0 138.548 0.526868 138.548 1.17505Z" fill="#666666"/>
<path d="M151.392 1.17505C151.392 1.82324 150.862 2.35011 150.211 2.35011C149.56 2.35011 149.03 1.82324 149.03 1.17505C149.03 0.526868 149.56 0 150.211 0C150.862 0 151.392 0.526868 151.392 1.17505Z" fill="#666666"/>
<path d="M163.999 1.17505C163.999 1.82324 163.47 2.35011 162.818 2.35011C162.167 2.35011 161.637 1.82324 161.637 1.17505C161.637 0.526868 162.167 0 162.818 0C163.47 0 163.999 0.526868 163.999 1.17505Z" fill="#666666"/>
<path d="M177 1.17505C177 1.82324 176.47 2.35011 175.819 2.35011C175.168 2.35011 174.638 1.82324 174.638 1.17505C174.638 0.526868 175.168 0 175.819 0C176.47 0 177 0.526868 177 1.17505Z" fill="#666666"/>
<path d="M10.6365 26.5929C10.6365 27.2411 10.107 27.768 9.45555 27.768C8.80411 27.768 8.2746 27.2411 8.2746 26.5929C8.2746 25.9447 8.80411 25.4178 9.45555 25.4178C10.107 25.4178 10.6365 25.9447 10.6365 26.5929Z" fill="#666666"/>
<path d="M23.6373 26.5929C23.6373 27.2411 23.1078 27.768 22.4564 27.768C21.805 27.768 21.2755 27.2411 21.2755 26.5929C21.2755 25.9447 21.805 25.4178 22.4564 25.4178C23.1113 25.4178 23.6373 25.9447 23.6373 26.5929Z" fill="#666666"/>
<path d="M36.3247 26.5929C36.3247 27.2411 35.7951 27.768 35.1437 27.768C34.4923 27.768 33.9628 27.2411 33.9628 26.5929C33.9628 25.9447 34.4923 25.4178 35.1437 25.4178C35.7951 25.4178 36.3247 25.9447 36.3247 26.5929Z" fill="#666666"/>
<path d="M49.1688 26.5929C49.1688 27.2411 48.6392 27.768 47.9878 27.768C47.3364 27.768 46.8069 27.2411 46.8069 26.5929C46.8069 25.9447 47.3364 25.4178 47.9878 25.4178C48.6392 25.4178 49.1688 25.9447 49.1688 26.5929Z" fill="#666666"/>
<path d="M61.7725 26.5929C61.7725 27.2411 61.243 27.768 60.5915 27.768C59.9401 27.768 59.4106 27.2411 59.4106 26.5929C59.4106 25.9447 59.9401 25.4178 60.5915 25.4178C61.243 25.4178 61.7725 25.9447 61.7725 26.5929Z" fill="#666666"/>
<path d="M74.7768 26.5929C74.7768 27.2411 74.2473 27.768 73.5959 27.768C72.9444 27.768 72.4149 27.2411 72.4149 26.5929C72.4149 25.9447 72.9444 25.4178 73.5959 25.4178C74.2473 25.4178 74.7768 25.9447 74.7768 26.5929Z" fill="#666666"/>
<path d="M87.3283 26.5929C87.3283 27.2411 86.7988 27.768 86.1473 27.768C85.4959 27.768 84.9664 27.2411 84.9664 26.5929C84.9664 25.9447 85.4959 25.4178 86.1473 25.4178C86.7988 25.4178 87.3283 25.9447 87.3283 26.5929Z" fill="#666666"/>
<path d="M100.172 26.5929C100.172 27.2411 99.6428 27.768 98.9914 27.768C98.34 27.768 97.8105 27.2411 97.8105 26.5929C97.8105 25.9447 98.34 25.4178 98.9914 25.4178C99.6428 25.4178 100.172 25.9447 100.172 26.5929Z" fill="#666666"/>
<path d="M112.78 26.5929C112.78 27.2411 112.25 27.768 111.599 27.768C110.947 27.768 110.418 27.2411 110.418 26.5929C110.418 25.9447 110.947 25.4178 111.599 25.4178C112.25 25.4178 112.78 25.9447 112.78 26.5929Z" fill="#666666"/>
<path d="M125.78 26.5929C125.78 27.2411 125.251 27.768 124.599 27.768C123.948 27.768 123.419 27.2411 123.419 26.5929C123.419 25.9447 123.948 25.4178 124.599 25.4178C125.251 25.4178 125.78 25.9447 125.78 26.5929Z" fill="#666666"/>
<path d="M138.548 26.5929C138.548 27.2411 138.018 27.768 137.367 27.768C136.715 27.768 136.186 27.2411 136.186 26.5929C136.186 25.9447 136.715 25.4178 137.367 25.4178C138.018 25.4178 138.548 25.9447 138.548 26.5929Z" fill="#666666"/>
<path d="M151.392 26.5929C151.392 27.2411 150.862 27.768 150.211 27.768C149.56 27.768 149.03 27.2411 149.03 26.5929C149.03 25.9447 149.56 25.4178 150.211 25.4178C150.862 25.4178 151.392 25.9447 151.392 26.5929Z" fill="#666666"/>
<path d="M163.999 26.5929C163.999 27.2411 163.47 27.768 162.818 27.768C162.167 27.768 161.637 27.2411 161.637 26.5929C161.637 25.9447 162.167 25.4178 162.818 25.4178C163.47 25.4178 163.999 25.9447 163.999 26.5929Z" fill="#666666"/>
<path d="M177 26.5929C177 27.2411 176.47 27.768 175.819 27.768C175.168 27.768 174.638 27.2411 174.638 26.5929C174.638 25.9447 175.168 25.4178 175.819 25.4178C176.47 25.4178 177 25.9447 177 26.5929Z" fill="#666666"/>
<path d="M10.6365 39.3383C10.6365 39.9864 10.107 40.5133 9.45555 40.5133C8.80411 40.5133 8.2746 39.9864 8.2746 39.3383C8.2746 38.6901 8.80411 38.1632 9.45555 38.1632C10.107 38.1632 10.6365 38.6866 10.6365 39.3383Z" fill="#666666"/>
<path d="M23.6373 39.3383C23.6373 39.9864 23.1078 40.5133 22.4564 40.5133C21.805 40.5133 21.2755 39.9864 21.2755 39.3383C21.2755 38.6901 21.805 38.1632 22.4564 38.1632C23.1113 38.1632 23.6373 38.6866 23.6373 39.3383Z" fill="#666666"/>
<path d="M36.3247 39.3383C36.3247 39.9864 35.7951 40.5133 35.1437 40.5133C34.4923 40.5133 33.9628 39.9864 33.9628 39.3383C33.9628 38.6901 34.4923 38.1632 35.1437 38.1632C35.7951 38.1632 36.3247 38.6866 36.3247 39.3383Z" fill="#666666"/>
<path d="M49.1688 39.3383C49.1688 39.9864 48.6392 40.5133 47.9878 40.5133C47.3364 40.5133 46.8069 39.9864 46.8069 39.3383C46.8069 38.6901 47.3364 38.1632 47.9878 38.1632C48.6392 38.1632 49.1688 38.6866 49.1688 39.3383Z" fill="#666666"/>
<path d="M61.7725 39.3383C61.7725 39.9864 61.243 40.5133 60.5915 40.5133C59.9401 40.5133 59.4106 39.9864 59.4106 39.3383C59.4106 38.6901 59.9401 38.1632 60.5915 38.1632C61.243 38.1632 61.7725 38.6866 61.7725 39.3383Z" fill="#666666"/>
<path d="M74.7768 39.3383C74.7768 39.9864 74.2473 40.5133 73.5959 40.5133C72.9444 40.5133 72.4149 39.9864 72.4149 39.3383C72.4149 38.6901 72.9444 38.1632 73.5959 38.1632C74.2473 38.1632 74.7768 38.6866 74.7768 39.3383Z" fill="#666666"/>
<path d="M87.3283 39.3383C87.3283 39.9864 86.7988 40.5133 86.1473 40.5133C85.4959 40.5133 84.9664 39.9864 84.9664 39.3383C84.9664 38.6901 85.4959 38.1632 86.1473 38.1632C86.7988 38.1632 87.3283 38.6866 87.3283 39.3383Z" fill="#666666"/>
<path d="M100.172 39.3383C100.172 39.9864 99.6428 40.5133 98.9914 40.5133C98.34 40.5133 97.8105 39.9864 97.8105 39.3383C97.8105 38.6901 98.34 38.1632 98.9914 38.1632C99.6428 38.1632 100.172 38.6866 100.172 39.3383Z" fill="#666666"/>
<path d="M112.78 39.3383C112.78 39.9864 112.25 40.5133 111.599 40.5133C110.947 40.5133 110.418 39.9864 110.418 39.3383C110.418 38.6901 110.947 38.1632 111.599 38.1632C112.25 38.1632 112.78 38.6866 112.78 39.3383Z" fill="#666666"/>
<path d="M125.78 39.3383C125.78 39.9864 125.251 40.5133 124.599 40.5133C123.948 40.5133 123.419 39.9864 123.419 39.3383C123.419 38.6901 123.948 38.1632 124.599 38.1632C125.251 38.1632 125.78 38.6866 125.78 39.3383Z" fill="#666666"/>
<path d="M138.548 39.3383C138.548 39.9864 138.018 40.5133 137.367 40.5133C136.715 40.5133 136.186 39.9864 136.186 39.3383C136.186 38.6901 136.715 38.1632 137.367 38.1632C138.018 38.1632 138.548 38.6866 138.548 39.3383Z" fill="#666666"/>
<path d="M151.392 39.3383C151.392 39.9864 150.862 40.5133 150.211 40.5133C149.56 40.5133 149.03 39.9864 149.03 39.3383C149.03 38.6901 149.56 38.1632 150.211 38.1632C150.862 38.1632 151.392 38.6866 151.392 39.3383Z" fill="#666666"/>
<path d="M163.999 39.3383C163.999 39.9864 163.47 40.5133 162.818 40.5133C162.167 40.5133 161.637 39.9864 161.637 39.3383C161.637 38.6901 162.167 38.1632 162.818 38.1632C163.47 38.1632 163.999 38.6866 163.999 39.3383Z" fill="#666666"/>
<path d="M177 39.3383C177 39.9864 176.47 40.5133 175.819 40.5133C175.168 40.5133 174.638 39.9864 174.638 39.3383C174.638 38.6901 175.168 38.1632 175.819 38.1632C176.47 38.1632 177 38.6866 177 39.3383Z" fill="#666666"/>
<path d="M10.6365 51.8861C10.6365 52.5343 10.107 53.0612 9.45555 53.0612C8.80411 53.0612 8.2746 52.5343 8.2746 51.8861C8.2746 51.2379 8.80411 50.7111 9.45555 50.7111C10.107 50.7111 10.6365 51.2345 10.6365 51.8861Z" fill="#666666"/>
<path d="M23.6373 51.8861C23.6373 52.5343 23.1078 53.0612 22.4564 53.0612C21.805 53.0612 21.2755 52.5343 21.2755 51.8861C21.2755 51.2379 21.805 50.7111 22.4564 50.7111C23.1113 50.7111 23.6373 51.2345 23.6373 51.8861Z" fill="#666666"/>
<path d="M36.3247 51.8861C36.3247 52.5343 35.7951 53.0612 35.1437 53.0612C34.4923 53.0612 33.9628 52.5343 33.9628 51.8861C33.9628 51.2379 34.4923 50.7111 35.1437 50.7111C35.7951 50.7111 36.3247 51.2345 36.3247 51.8861Z" fill="#666666"/>
<path d="M49.1688 51.8861C49.1688 52.5343 48.6392 53.0612 47.9878 53.0612C47.3364 53.0612 46.8069 52.5343 46.8069 51.8861C46.8069 51.2379 47.3364 50.7111 47.9878 50.7111C48.6392 50.7111 49.1688 51.2345 49.1688 51.8861Z" fill="#666666"/>
<path d="M61.7725 51.8861C61.7725 52.5343 61.243 53.0612 60.5915 53.0612C59.9401 53.0612 59.4106 52.5343 59.4106 51.8861C59.4106 51.2379 59.9401 50.7111 60.5915 50.7111C61.243 50.7111 61.7725 51.2345 61.7725 51.8861Z" fill="#666666"/>
<path d="M74.7768 51.8861C74.7768 52.5343 74.2473 53.0612 73.5959 53.0612C72.9444 53.0612 72.4149 52.5343 72.4149 51.8861C72.4149 51.2379 72.9444 50.7111 73.5959 50.7111C74.2473 50.7111 74.7768 51.2345 74.7768 51.8861Z" fill="#666666"/>
<path d="M87.3283 51.8861C87.3283 52.5343 86.7988 53.0612 86.1473 53.0612C85.4959 53.0612 84.9664 52.5343 84.9664 51.8861C84.9664 51.2379 85.4959 50.7111 86.1473 50.7111C86.7988 50.7111 87.3283 51.2345 87.3283 51.8861Z" fill="#666666"/>
<path d="M100.172 51.8861C100.172 52.5343 99.6428 53.0612 98.9914 53.0612C98.34 53.0612 97.8105 52.5343 97.8105 51.8861C97.8105 51.2379 98.34 50.7111 98.9914 50.7111C99.6428 50.7111 100.172 51.2345 100.172 51.8861Z" fill="#666666"/>
<path d="M112.78 51.8861C112.78 52.5343 112.25 53.0612 111.599 53.0612C110.947 53.0612 110.418 52.5343 110.418 51.8861C110.418 51.2379 110.947 50.7111 111.599 50.7111C112.25 50.7111 112.78 51.2345 112.78 51.8861Z" fill="#666666"/>
<path d="M125.78 51.8861C125.78 52.5343 125.251 53.0612 124.599 53.0612C123.948 53.0612 123.419 52.5343 123.419 51.8861C123.419 51.2379 123.948 50.7111 124.599 50.7111C125.251 50.7111 125.78 51.2345 125.78 51.8861Z" fill="#666666"/>
<path d="M138.548 51.8861C138.548 52.5343 138.018 53.0612 137.367 53.0612C136.715 53.0612 136.186 52.5343 136.186 51.8861C136.186 51.2379 136.715 50.7111 137.367 50.7111C138.018 50.7111 138.548 51.2345 138.548 51.8861Z" fill="#666666"/>
<path d="M151.392 51.8861C151.392 52.5343 150.862 53.0612 150.211 53.0612C149.56 53.0612 149.03 52.5343 149.03 51.8861C149.03 51.2379 149.56 50.7111 150.211 50.7111C150.862 50.7111 151.392 51.2345 151.392 51.8861Z" fill="#666666"/>
<path d="M163.999 51.8861C163.999 52.5343 163.47 53.0612 162.818 53.0612C162.167 53.0612 161.637 52.5343 161.637 51.8861C161.637 51.2379 162.167 50.7111 162.818 50.7111C163.47 50.7111 163.999 51.2345 163.999 51.8861Z" fill="#666666"/>
<path d="M177 51.8861C177 52.5343 176.47 53.0612 175.819 53.0612C175.168 53.0612 174.638 52.5343 174.638 51.8861C174.638 51.2379 175.168 50.7111 175.819 50.7111C176.47 50.7111 177 51.2345 177 51.8861Z" fill="#666666"/>
<path d="M10.6365 64.621C10.6365 65.2692 10.107 65.796 9.45555 65.796C8.80411 65.796 8.2746 65.2692 8.2746 64.621C8.2746 63.9728 8.80411 63.4459 9.45555 63.4459C10.107 63.4459 10.6365 63.9693 10.6365 64.621Z" fill="#666666"/>
<path d="M23.6373 64.621C23.6373 65.2692 23.1078 65.796 22.4564 65.796C21.805 65.796 21.2755 65.2692 21.2755 64.621C21.2755 63.9728 21.805 63.4459 22.4564 63.4459C23.1113 63.4459 23.6373 63.9693 23.6373 64.621Z" fill="#666666"/>
<path d="M36.3247 64.621C36.3247 65.2692 35.7951 65.796 35.1437 65.796C34.4923 65.796 33.9628 65.2692 33.9628 64.621C33.9628 63.9728 34.4923 63.4459 35.1437 63.4459C35.7951 63.4459 36.3247 63.9693 36.3247 64.621Z" fill="#666666"/>
<path d="M49.1688 64.621C49.1688 65.2692 48.6392 65.796 47.9878 65.796C47.3364 65.796 46.8069 65.2692 46.8069 64.621C46.8069 63.9728 47.3364 63.4459 47.9878 63.4459C48.6392 63.4459 49.1688 63.9693 49.1688 64.621Z" fill="#666666"/>
<path d="M61.7725 64.621C61.7725 65.2692 61.243 65.796 60.5915 65.796C59.9401 65.796 59.4106 65.2692 59.4106 64.621C59.4106 63.9728 59.9401 63.4459 60.5915 63.4459C61.243 63.4459 61.7725 63.9693 61.7725 64.621Z" fill="#666666"/>
<path d="M74.7768 64.621C74.7768 65.2692 74.2473 65.796 73.5959 65.796C72.9444 65.796 72.4149 65.2692 72.4149 64.621C72.4149 63.9728 72.9444 63.4459 73.5959 63.4459C74.2473 63.4459 74.7768 63.9693 74.7768 64.621Z" fill="#666666"/>
<path d="M87.3283 64.621C87.3283 65.2692 86.7988 65.796 86.1473 65.796C85.4959 65.796 84.9664 65.2692 84.9664 64.621C84.9664 63.9728 85.4959 63.4459 86.1473 63.4459C86.7988 63.4459 87.3283 63.9693 87.3283 64.621Z" fill="#666666"/>
<path d="M100.172 64.621C100.172 65.2692 99.6428 65.796 98.9914 65.796C98.34 65.796 97.8105 65.2692 97.8105 64.621C97.8105 63.9728 98.34 63.4459 98.9914 63.4459C99.6428 63.4459 100.172 63.9693 100.172 64.621Z" fill="#666666"/>
<path d="M112.78 64.621C112.78 65.2692 112.25 65.796 111.599 65.796C110.947 65.796 110.418 65.2692 110.418 64.621C110.418 63.9728 110.947 63.4459 111.599 63.4459C112.25 63.4459 112.78 63.9693 112.78 64.621Z" fill="#666666"/>
<path d="M125.78 64.621C125.78 65.2692 125.251 65.796 124.599 65.796C123.948 65.796 123.419 65.2692 123.419 64.621C123.419 63.9728 123.948 63.4459 124.599 63.4459C125.251 63.4459 125.78 63.9693 125.78 64.621Z" fill="#666666"/>
<path d="M138.548 64.621C138.548 65.2692 138.018 65.796 137.367 65.796C136.715 65.796 136.186 65.2692 136.186 64.621C136.186 63.9728 136.715 63.4459 137.367 63.4459C138.018 63.4459 138.548 63.9693 138.548 64.621Z" fill="#666666"/>
<path d="M151.392 64.621C151.392 65.2692 150.862 65.796 150.211 65.796C149.56 65.796 149.03 65.2692 149.03 64.621C149.03 63.9728 149.56 63.4459 150.211 63.4459C150.862 63.4459 151.392 63.9693 151.392 64.621Z" fill="#666666"/>
<path d="M163.999 64.621C163.999 65.2692 163.47 65.796 162.818 65.796C162.167 65.796 161.637 65.2692 161.637 64.621C161.637 63.9728 162.167 63.4459 162.818 63.4459C163.47 63.4459 163.999 63.9693 163.999 64.621Z" fill="#666666"/>
<path d="M177 64.621C177 65.2692 176.47 65.796 175.819 65.796C175.168 65.796 174.638 65.2692 174.638 64.621C174.638 63.9728 175.168 63.4459 175.819 63.4459C176.47 63.4459 177 63.9693 177 64.621Z" fill="#666666"/>
<path d="M10.6365 77.3283C10.6365 77.9764 10.107 78.5033 9.45555 78.5033C8.80411 78.5033 8.2746 77.9764 8.2746 77.3283C8.2746 76.6801 8.80411 76.1532 9.45555 76.1532C10.107 76.1532 10.6365 76.6801 10.6365 77.3283Z" fill="#666666"/>
<path d="M23.6373 77.3283C23.6373 77.9764 23.1078 78.5033 22.4564 78.5033C21.805 78.5033 21.2755 77.9764 21.2755 77.3283C21.2755 76.6801 21.805 76.1532 22.4564 76.1532C23.1113 76.1532 23.6373 76.6801 23.6373 77.3283Z" fill="#666666"/>
<path d="M36.3247 77.3283C36.3247 77.9764 35.7951 78.5033 35.1437 78.5033C34.4923 78.5033 33.9628 77.9764 33.9628 77.3283C33.9628 76.6801 34.4923 76.1532 35.1437 76.1532C35.7951 76.1532 36.3247 76.6801 36.3247 77.3283Z" fill="#666666"/>
<path d="M49.1688 77.3283C49.1688 77.9764 48.6392 78.5033 47.9878 78.5033C47.3364 78.5033 46.8069 77.9764 46.8069 77.3283C46.8069 76.6801 47.3364 76.1532 47.9878 76.1532C48.6392 76.1532 49.1688 76.6801 49.1688 77.3283Z" fill="#666666"/>
<path d="M61.7725 77.3283C61.7725 77.9764 61.243 78.5033 60.5915 78.5033C59.9401 78.5033 59.4106 77.9764 59.4106 77.3283C59.4106 76.6801 59.9401 76.1532 60.5915 76.1532C61.243 76.1532 61.7725 76.6801 61.7725 77.3283Z" fill="#666666"/>
<path d="M74.7768 77.3283C74.7768 77.9764 74.2473 78.5033 73.5959 78.5033C72.9444 78.5033 72.4149 77.9764 72.4149 77.3283C72.4149 76.6801 72.9444 76.1532 73.5959 76.1532C74.2473 76.1532 74.7768 76.6801 74.7768 77.3283Z" fill="#666666"/>
<path d="M87.3283 77.3283C87.3283 77.9764 86.7988 78.5033 86.1473 78.5033C85.4959 78.5033 84.9664 77.9764 84.9664 77.3283C84.9664 76.6801 85.4959 76.1532 86.1473 76.1532C86.7988 76.1532 87.3283 76.6801 87.3283 77.3283Z" fill="#666666"/>
<path d="M100.172 77.3283C100.172 77.9764 99.6428 78.5033 98.9914 78.5033C98.34 78.5033 97.8105 77.9764 97.8105 77.3283C97.8105 76.6801 98.34 76.1532 98.9914 76.1532C99.6428 76.1532 100.172 76.6801 100.172 77.3283Z" fill="#666666"/>
<path d="M112.78 77.3283C112.78 77.9764 112.25 78.5033 111.599 78.5033C110.947 78.5033 110.418 77.9764 110.418 77.3283C110.418 76.6801 110.947 76.1532 111.599 76.1532C112.25 76.1532 112.78 76.6801 112.78 77.3283Z" fill="#666666"/>
<path d="M125.78 77.3283C125.78 77.9764 125.251 78.5033 124.599 78.5033C123.948 78.5033 123.419 77.9764 123.419 77.3283C123.419 76.6801 123.948 76.1532 124.599 76.1532C125.251 76.1532 125.78 76.6801 125.78 77.3283Z" fill="#666666"/>
<path d="M138.548 77.3283C138.548 77.9764 138.018 78.5033 137.367 78.5033C136.715 78.5033 136.186 77.9764 136.186 77.3283C136.186 76.6801 136.715 76.1532 137.367 76.1532C138.018 76.1532 138.548 76.6801 138.548 77.3283Z" fill="#666666"/>
<path d="M151.392 77.3283C151.392 77.9764 150.862 78.5033 150.211 78.5033C149.56 78.5033 149.03 77.9764 149.03 77.3283C149.03 76.6801 149.56 76.1532 150.211 76.1532C150.862 76.1532 151.392 76.6801 151.392 77.3283Z" fill="#666666"/>
<path d="M163.999 77.3283C163.999 77.9764 163.47 78.5033 162.818 78.5033C162.167 78.5033 161.637 77.9764 161.637 77.3283C161.637 76.6801 162.167 76.1532 162.818 76.1532C163.47 76.1532 163.999 76.6801 163.999 77.3283Z" fill="#666666"/>
<path d="M177 77.3283C177 77.9764 176.47 78.5033 175.819 78.5033C175.168 78.5033 174.638 77.9764 174.638 77.3283C174.638 76.6801 175.168 76.1532 175.819 76.1532C176.47 76.1532 177 76.6801 177 77.3283Z" fill="#666666"/>
<path d="M10.6365 90.136C10.6365 90.7842 10.107 91.311 9.45555 91.311C8.80411 91.311 8.2746 90.7842 8.2746 90.136C8.2746 89.4878 8.80411 88.9609 9.45555 88.9609C10.107 88.9609 10.6365 89.4878 10.6365 90.136Z" fill="#666666"/>
<path d="M23.6373 90.136C23.6373 90.7842 23.1078 91.311 22.4564 91.311C21.805 91.311 21.2755 90.7842 21.2755 90.136C21.2755 89.4878 21.805 88.9609 22.4564 88.9609C23.1113 88.9609 23.6373 89.4878 23.6373 90.136Z" fill="#666666"/>
<path d="M36.3247 90.136C36.3247 90.7842 35.7951 91.311 35.1437 91.311C34.4923 91.311 33.9628 90.7842 33.9628 90.136C33.9628 89.4878 34.4923 88.9609 35.1437 88.9609C35.7951 88.9609 36.3247 89.4878 36.3247 90.136Z" fill="#666666"/>
<path d="M49.1688 90.136C49.1688 90.7842 48.6392 91.311 47.9878 91.311C47.3364 91.311 46.8069 90.7842 46.8069 90.136C46.8069 89.4878 47.3364 88.9609 47.9878 88.9609C48.6392 88.9609 49.1688 89.4878 49.1688 90.136Z" fill="#666666"/>
<path d="M61.7725 90.136C61.7725 90.7842 61.243 91.311 60.5915 91.311C59.9401 91.311 59.4106 90.7842 59.4106 90.136C59.4106 89.4878 59.9401 88.9609 60.5915 88.9609C61.243 88.9609 61.7725 89.4878 61.7725 90.136Z" fill="#666666"/>
<path d="M74.7768 90.136C74.7768 90.7842 74.2473 91.311 73.5959 91.311C72.9444 91.311 72.4149 90.7842 72.4149 90.136C72.4149 89.4878 72.9444 88.9609 73.5959 88.9609C74.2473 88.9609 74.7768 89.4878 74.7768 90.136Z" fill="#666666"/>
<path d="M87.3283 90.136C87.3283 90.7842 86.7988 91.311 86.1473 91.311C85.4959 91.311 84.9664 90.7842 84.9664 90.136C84.9664 89.4878 85.4959 88.9609 86.1473 88.9609C86.7988 88.9609 87.3283 89.4878 87.3283 90.136Z" fill="#666666"/>
<path d="M100.172 90.136C100.172 90.7842 99.6428 91.311 98.9914 91.311C98.34 91.311 97.8105 90.7842 97.8105 90.136C97.8105 89.4878 98.34 88.9609 98.9914 88.9609C99.6428 88.9609 100.172 89.4878 100.172 90.136Z" fill="#666666"/>
<path d="M112.78 90.136C112.78 90.7842 112.25 91.311 111.599 91.311C110.947 91.311 110.418 90.7842 110.418 90.136C110.418 89.4878 110.947 88.9609 111.599 88.9609C112.25 88.9609 112.78 89.4878 112.78 90.136Z" fill="#666666"/>
<path d="M125.78 90.136C125.78 90.7842 125.251 91.311 124.599 91.311C123.948 91.311 123.419 90.7842 123.419 90.136C123.419 89.4878 123.948 88.9609 124.599 88.9609C125.251 88.9609 125.78 89.4878 125.78 90.136Z" fill="#666666"/>
<path d="M138.548 90.136C138.548 90.7842 138.018 91.311 137.367 91.311C136.715 91.311 136.186 90.7842 136.186 90.136C136.186 89.4878 136.715 88.9609 137.367 88.9609C138.018 88.9609 138.548 89.4878 138.548 90.136Z" fill="#666666"/>
<path d="M151.392 90.136C151.392 90.7842 150.862 91.311 150.211 91.311C149.56 91.311 149.03 90.7842 149.03 90.136C149.03 89.4878 149.56 88.9609 150.211 88.9609C150.862 88.9609 151.392 89.4878 151.392 90.136Z" fill="#666666"/>
<path d="M163.999 90.136C163.999 90.7842 163.47 91.311 162.818 91.311C162.167 91.311 161.637 90.7842 161.637 90.136C161.637 89.4878 162.167 88.9609 162.818 88.9609C163.47 88.9609 163.999 89.4878 163.999 90.136Z" fill="#666666"/>
<path d="M177 90.136C177 90.7842 176.47 91.311 175.819 91.311C175.168 91.311 174.638 90.7842 174.638 90.136C174.638 89.4878 175.168 88.9609 175.819 88.9609C176.47 88.9609 177 89.4878 177 90.136Z" fill="#666666"/>
<path d="M10.6365 102.85C10.6365 103.498 10.107 104.025 9.45555 104.025C8.80411 104.025 8.2746 103.498 8.2746 102.85C8.2746 102.202 8.80411 101.675 9.45555 101.675C10.107 101.675 10.6365 102.202 10.6365 102.85Z" fill="#666666"/>
<path d="M23.6373 102.85C23.6373 103.498 23.1078 104.025 22.4564 104.025C21.805 104.025 21.2755 103.498 21.2755 102.85C21.2755 102.202 21.805 101.675 22.4564 101.675C23.1113 101.675 23.6373 102.202 23.6373 102.85Z" fill="#666666"/>
<path d="M36.3247 102.85C36.3247 103.498 35.7951 104.025 35.1437 104.025C34.4923 104.025 33.9628 103.498 33.9628 102.85C33.9628 102.202 34.4923 101.675 35.1437 101.675C35.7951 101.675 36.3247 102.202 36.3247 102.85Z" fill="#666666"/>
<path d="M49.1688 102.85C49.1688 103.498 48.6392 104.025 47.9878 104.025C47.3364 104.025 46.8069 103.498 46.8069 102.85C46.8069 102.202 47.3364 101.675 47.9878 101.675C48.6392 101.675 49.1688 102.202 49.1688 102.85Z" fill="#666666"/>
<path d="M61.7725 102.85C61.7725 103.498 61.243 104.025 60.5915 104.025C59.9401 104.025 59.4106 103.498 59.4106 102.85C59.4106 102.202 59.9401 101.675 60.5915 101.675C61.243 101.675 61.7725 102.202 61.7725 102.85Z" fill="#666666"/>
<path d="M74.7768 102.85C74.7768 103.498 74.2473 104.025 73.5959 104.025C72.9444 104.025 72.4149 103.498 72.4149 102.85C72.4149 102.202 72.9444 101.675 73.5959 101.675C74.2473 101.675 74.7768 102.202 74.7768 102.85Z" fill="#666666"/>
<path d="M87.3283 102.85C87.3283 103.498 86.7988 104.025 86.1473 104.025C85.4959 104.025 84.9664 103.498 84.9664 102.85C84.9664 102.202 85.4959 101.675 86.1473 101.675C86.7988 101.675 87.3283 102.202 87.3283 102.85Z" fill="#666666"/>
<path d="M100.172 102.85C100.172 103.498 99.6428 104.025 98.9914 104.025C98.34 104.025 97.8105 103.498 97.8105 102.85C97.8105 102.202 98.34 101.675 98.9914 101.675C99.6428 101.675 100.172 102.202 100.172 102.85Z" fill="#666666"/>
<path d="M112.78 102.85C112.78 103.498 112.25 104.025 111.599 104.025C110.947 104.025 110.418 103.498 110.418 102.85C110.418 102.202 110.947 101.675 111.599 101.675C112.25 101.675 112.78 102.202 112.78 102.85Z" fill="#666666"/>
<path d="M125.78 102.85C125.78 103.498 125.251 104.025 124.599 104.025C123.948 104.025 123.419 103.498 123.419 102.85C123.419 102.202 123.948 101.675 124.599 101.675C125.251 101.675 125.78 102.202 125.78 102.85Z" fill="#666666"/>
<path d="M138.548 102.85C138.548 103.498 138.018 104.025 137.367 104.025C136.715 104.025 136.186 103.498 136.186 102.85C136.186 102.202 136.715 101.675 137.367 101.675C138.018 101.675 138.548 102.202 138.548 102.85Z" fill="#666666"/>
<path d="M151.392 102.85C151.392 103.498 150.862 104.025 150.211 104.025C149.56 104.025 149.03 103.498 149.03 102.85C149.03 102.202 149.56 101.675 150.211 101.675C150.862 101.675 151.392 102.202 151.392 102.85Z" fill="#666666"/>
<path d="M163.999 102.85C163.999 103.498 163.47 104.025 162.818 104.025C162.167 104.025 161.637 103.498 161.637 102.85C161.637 102.202 162.167 101.675 162.818 101.675C163.47 101.675 163.999 102.202 163.999 102.85Z" fill="#666666"/>
<path d="M177 102.85C177 103.498 176.47 104.025 175.819 104.025C175.168 104.025 174.638 103.498 174.638 102.85C174.638 102.202 175.168 101.675 175.819 101.675C176.47 101.675 177 102.202 177 102.85Z" fill="#666666"/>
</g>
</svg>
