<svg width="256" height="97" viewBox="0 0 256 97" fill="none" xmlns="http://www.w3.org/2000/svg">
<g clip-path="url(#clip0_194_9314)">
<g opacity="0.5">
<path d="M15.0632 13.9517C15.0632 14.5999 14.5337 15.1267 13.8822 15.1267C13.2308 15.1267 12.7013 14.5999 12.7013 13.9517C12.7013 13.3035 13.2308 12.7766 13.8822 12.7766C14.5337 12.7766 15.0632 13.3035 15.0632 13.9517Z" fill="#666666"/>
<path d="M2.36189 13.9517C2.36189 14.5999 1.83238 15.1267 1.18095 15.1267C0.529509 15.1267 0 14.5999 0 13.9517C0 13.3035 0.529509 12.7766 1.18095 12.7766C1.83238 12.7766 2.36189 13.3035 2.36189 13.9517Z" fill="#666666"/>
<path d="M27.9073 13.9517C27.9073 14.5999 27.3778 15.1267 26.7264 15.1267C26.0749 15.1267 25.5454 14.5999 25.5454 13.9517C25.5454 13.3035 26.0749 12.7766 26.7264 12.7766C27.3778 12.7766 27.9073 13.3035 27.9073 13.9517Z" fill="#666666"/>
<path d="M40.5109 13.9517C40.5109 14.5999 39.9814 15.1267 39.33 15.1267C38.6786 15.1267 38.149 14.5999 38.149 13.9517C38.149 13.3035 38.6786 12.7766 39.33 12.7766C39.9849 12.7766 40.5109 13.3035 40.5109 13.9517Z" fill="#666666"/>
<path d="M53.5153 13.9517C53.5153 14.5999 52.9858 15.1267 52.3344 15.1267C51.683 15.1267 51.1534 14.5999 51.1534 13.9517C51.1534 13.3035 51.683 12.7766 52.3344 12.7766C52.9858 12.7766 53.5153 13.3035 53.5153 13.9517Z" fill="#666666"/>
<path d="M66.1887 13.9517C66.1887 14.5999 65.6592 15.1267 65.0077 15.1267C64.3563 15.1267 63.8268 14.5999 63.8268 13.9517C63.8268 13.3035 64.3563 12.7766 65.0077 12.7766C65.6592 12.7766 66.1887 13.3035 66.1887 13.9517Z" fill="#666666"/>
<path d="M79.0292 13.9517C79.0292 14.5999 78.4997 15.1267 77.8483 15.1267C77.1969 15.1267 76.6674 14.5999 76.6674 13.9517C76.6674 13.3035 77.1969 12.7766 77.8483 12.7766C78.5032 12.7766 79.0292 13.3035 79.0292 13.9517Z" fill="#666666"/>
<path d="M91.6365 13.9517C91.6365 14.5999 91.107 15.1267 90.4556 15.1267C89.8042 15.1267 89.2747 14.5999 89.2747 13.9517C89.2747 13.3035 89.8042 12.7766 90.4556 12.7766C91.107 12.7766 91.6365 13.3035 91.6365 13.9517Z" fill="#666666"/>
<path d="M104.637 13.9517C104.637 14.5999 104.108 15.1267 103.456 15.1267C102.805 15.1267 102.275 14.5999 102.275 13.9517C102.275 13.3035 102.805 12.7766 103.456 12.7766C104.111 12.7766 104.637 13.3035 104.637 13.9517Z" fill="#666666"/>
<path d="M117.325 13.9517C117.325 14.5999 116.795 15.1267 116.144 15.1267C115.492 15.1267 114.963 14.5999 114.963 13.9517C114.963 13.3035 115.492 12.7766 116.144 12.7766C116.795 12.7766 117.325 13.3035 117.325 13.9517Z" fill="#666666"/>
<path d="M130.169 13.9517C130.169 14.5999 129.639 15.1267 128.988 15.1267C128.336 15.1267 127.807 14.5999 127.807 13.9517C127.807 13.3035 128.336 12.7766 128.988 12.7766C129.639 12.7766 130.169 13.3035 130.169 13.9517Z" fill="#666666"/>
<path d="M142.773 13.9517C142.773 14.5999 142.243 15.1267 141.592 15.1267C140.94 15.1267 140.411 14.5999 140.411 13.9517C140.411 13.3035 140.94 12.7766 141.592 12.7766C142.243 12.7766 142.773 13.3035 142.773 13.9517Z" fill="#666666"/>
<path d="M155.777 13.9517C155.777 14.5999 155.247 15.1267 154.596 15.1267C153.944 15.1267 153.415 14.5999 153.415 13.9517C153.415 13.3035 153.944 12.7766 154.596 12.7766C155.247 12.7766 155.777 13.3035 155.777 13.9517Z" fill="#666666"/>
<path d="M168.328 13.9517C168.328 14.5999 167.799 15.1267 167.147 15.1267C166.496 15.1267 165.966 14.5999 165.966 13.9517C165.966 13.3035 166.496 12.7766 167.147 12.7766C167.799 12.7766 168.328 13.3035 168.328 13.9517Z" fill="#666666"/>
<path d="M181.172 13.9517C181.172 14.5999 180.643 15.1267 179.991 15.1267C179.34 15.1267 178.81 14.5999 178.81 13.9517C178.81 13.3035 179.34 12.7766 179.991 12.7766C180.643 12.7766 181.172 13.3035 181.172 13.9517Z" fill="#666666"/>
<path d="M193.78 13.9517C193.78 14.5999 193.25 15.1267 192.599 15.1267C191.947 15.1267 191.418 14.5999 191.418 13.9517C191.418 13.3035 191.947 12.7766 192.599 12.7766C193.25 12.7766 193.78 13.3035 193.78 13.9517Z" fill="#666666"/>
<path d="M206.78 13.9517C206.78 14.5999 206.251 15.1267 205.6 15.1267C204.948 15.1267 204.419 14.5999 204.419 13.9517C204.419 13.3035 204.948 12.7766 205.6 12.7766C206.251 12.7766 206.78 13.3035 206.78 13.9517Z" fill="#666666"/>
<path d="M219.548 13.9517C219.548 14.5999 219.018 15.1267 218.367 15.1267C217.716 15.1267 217.186 14.5999 217.186 13.9517C217.186 13.3035 217.716 12.7766 218.367 12.7766C219.018 12.7766 219.548 13.3035 219.548 13.9517Z" fill="#666666"/>
<path d="M232.392 13.9517C232.392 14.5999 231.862 15.1267 231.211 15.1267C230.56 15.1267 230.03 14.5999 230.03 13.9517C230.03 13.3035 230.56 12.7766 231.211 12.7766C231.862 12.7766 232.392 13.3035 232.392 13.9517Z" fill="#666666"/>
<path d="M244.999 13.9517C244.999 14.5999 244.47 15.1267 243.818 15.1267C243.167 15.1267 242.637 14.5999 242.637 13.9517C242.637 13.3035 243.167 12.7766 243.818 12.7766C244.47 12.7766 244.999 13.3035 244.999 13.9517Z" fill="#666666"/>
<path d="M258 13.9517C258 14.5999 257.471 15.1267 256.819 15.1267C256.168 15.1267 255.638 14.5999 255.638 13.9517C255.638 13.3035 256.168 12.7766 256.819 12.7766C257.471 12.7766 258 13.3035 258 13.9517Z" fill="#666666"/>
<path d="M15.0632 1.17505C15.0632 1.82324 14.5337 2.35011 13.8822 2.35011C13.2308 2.35011 12.7013 1.82324 12.7013 1.17505C12.7013 0.526868 13.2308 0 13.8822 0C14.5337 0 15.0632 0.526868 15.0632 1.17505Z" fill="#666666"/>
<path d="M2.36189 1.17505C2.36189 1.82324 1.83238 2.35011 1.18095 2.35011C0.529509 2.35011 0 1.82324 0 1.17505C0 0.526868 0.529509 0 1.18095 0C1.83238 0 2.36189 0.526868 2.36189 1.17505Z" fill="#666666"/>
<path d="M27.9073 1.17505C27.9073 1.82324 27.3778 2.35011 26.7264 2.35011C26.0749 2.35011 25.5454 1.82324 25.5454 1.17505C25.5454 0.526868 26.0749 0 26.7264 0C27.3778 0 27.9073 0.526868 27.9073 1.17505Z" fill="#666666"/>
<path d="M40.5109 1.17505C40.5109 1.82324 39.9814 2.35011 39.33 2.35011C38.6786 2.35011 38.149 1.82324 38.149 1.17505C38.149 0.526868 38.682 0 39.3335 0C39.9849 0 40.5109 0.526868 40.5109 1.17505Z" fill="#666666"/>
<path d="M53.5153 1.17505C53.5153 1.82324 52.9858 2.35011 52.3344 2.35011C51.683 2.35011 51.1534 1.82324 51.1534 1.17505C51.1534 0.526868 51.683 0 52.3344 0C52.9858 0 53.5153 0.526868 53.5153 1.17505Z" fill="#666666"/>
<path d="M66.1887 1.17505C66.1887 1.82324 65.6592 2.35011 65.0077 2.35011C64.3563 2.35011 63.8268 1.82324 63.8268 1.17505C63.8268 0.526868 64.3563 0 65.0077 0C65.6592 0 66.1887 0.526868 66.1887 1.17505Z" fill="#666666"/>
<path d="M79.0292 1.17505C79.0292 1.82324 78.4997 2.35011 77.8483 2.35011C77.1969 2.35011 76.6674 1.82324 76.6674 1.17505C76.6674 0.526868 77.1969 0 77.8518 0C78.5032 0 79.0292 0.526868 79.0292 1.17505Z" fill="#666666"/>
<path d="M91.6365 1.17505C91.6365 1.82324 91.107 2.35011 90.4556 2.35011C89.8042 2.35011 89.2747 1.82324 89.2747 1.17505C89.2747 0.526868 89.8042 0 90.4556 0C91.107 0 91.6365 0.526868 91.6365 1.17505Z" fill="#666666"/>
<path d="M104.637 1.17505C104.637 1.82324 104.108 2.35011 103.456 2.35011C102.805 2.35011 102.275 1.82324 102.275 1.17505C102.275 0.526868 102.805 0 103.46 0C104.111 0 104.637 0.526868 104.637 1.17505Z" fill="#666666"/>
<path d="M117.325 1.17505C117.325 1.82324 116.795 2.35011 116.144 2.35011C115.492 2.35011 114.963 1.82324 114.963 1.17505C114.963 0.526868 115.492 0 116.144 0C116.795 0 117.325 0.526868 117.325 1.17505Z" fill="#666666"/>
<path d="M130.169 1.17505C130.169 1.82324 129.639 2.35011 128.988 2.35011C128.336 2.35011 127.807 1.82324 127.807 1.17505C127.807 0.526868 128.336 0 128.988 0C129.639 0 130.169 0.526868 130.169 1.17505Z" fill="#666666"/>
<path d="M142.773 1.17505C142.773 1.82324 142.243 2.35011 141.592 2.35011C140.94 2.35011 140.411 1.82324 140.411 1.17505C140.411 0.526868 140.944 0 141.595 0C142.247 0 142.773 0.526868 142.773 1.17505Z" fill="#666666"/>
<path d="M155.777 1.17505C155.777 1.82324 155.247 2.35011 154.596 2.35011C153.944 2.35011 153.415 1.82324 153.415 1.17505C153.415 0.526868 153.944 0 154.596 0C155.247 0 155.777 0.526868 155.777 1.17505Z" fill="#666666"/>
<path d="M168.328 1.17505C168.328 1.82324 167.799 2.35011 167.147 2.35011C166.496 2.35011 165.966 1.82324 165.966 1.17505C165.966 0.526868 166.499 0 167.151 0C167.802 0 168.328 0.526868 168.328 1.17505Z" fill="#666666"/>
<path d="M181.172 1.17505C181.172 1.82324 180.643 2.35011 179.991 2.35011C179.34 2.35011 178.81 1.82324 178.81 1.17505C178.81 0.526868 179.34 0 179.991 0C180.643 0 181.172 0.526868 181.172 1.17505Z" fill="#666666"/>
<path d="M193.78 1.17505C193.78 1.82324 193.25 2.35011 192.599 2.35011C191.947 2.35011 191.418 1.82324 191.418 1.17505C191.418 0.526868 191.947 0 192.599 0C193.25 0 193.78 0.526868 193.78 1.17505Z" fill="#666666"/>
<path d="M206.78 1.17505C206.78 1.82324 206.251 2.35011 205.6 2.35011C204.948 2.35011 204.419 1.82324 204.419 1.17505C204.419 0.526868 204.948 0 205.6 0C206.251 0 206.78 0.526868 206.78 1.17505Z" fill="#666666"/>
<path d="M219.548 1.17505C219.548 1.82324 219.018 2.35011 218.367 2.35011C217.716 2.35011 217.186 1.82324 217.186 1.17505C217.186 0.526868 217.716 0 218.367 0C219.018 0 219.548 0.526868 219.548 1.17505Z" fill="#666666"/>
<path d="M232.392 1.17505C232.392 1.82324 231.862 2.35011 231.211 2.35011C230.56 2.35011 230.03 1.82324 230.03 1.17505C230.03 0.526868 230.56 0 231.211 0C231.862 0 232.392 0.526868 232.392 1.17505Z" fill="#666666"/>
<path d="M244.999 1.17505C244.999 1.82324 244.47 2.35011 243.818 2.35011C243.167 2.35011 242.637 1.82324 242.637 1.17505C242.637 0.526868 243.167 0 243.818 0C244.47 0 244.999 0.526868 244.999 1.17505Z" fill="#666666"/>
<path d="M258 1.17505C258 1.82324 257.471 2.35011 256.819 2.35011C256.168 2.35011 255.638 1.82324 255.638 1.17505C255.638 0.526868 256.168 0 256.819 0C257.471 0 258 0.526868 258 1.17505Z" fill="#666666"/>
<path d="M15.0632 26.593C15.0632 27.2412 14.5337 27.7681 13.8822 27.7681C13.2308 27.7681 12.7013 27.2412 12.7013 26.593C12.7013 25.9448 13.2308 25.418 13.8822 25.418C14.5337 25.418 15.0632 25.9448 15.0632 26.593Z" fill="#666666"/>
<path d="M2.36189 26.593C2.36189 27.2412 1.83238 27.7681 1.18095 27.7681C0.529509 27.7681 0 27.2412 0 26.593C0 25.9448 0.529509 25.418 1.18095 25.418C1.83238 25.418 2.36189 25.9448 2.36189 26.593Z" fill="#666666"/>
<path d="M27.9073 26.593C27.9073 27.2412 27.3778 27.7681 26.7264 27.7681C26.0749 27.7681 25.5454 27.2412 25.5454 26.593C25.5454 25.9448 26.0749 25.418 26.7264 25.418C27.3778 25.418 27.9073 25.9448 27.9073 26.593Z" fill="#666666"/>
<path d="M40.5109 26.593C40.5109 27.2412 39.9814 27.7681 39.33 27.7681C38.6786 27.7681 38.149 27.2412 38.149 26.593C38.149 25.9448 38.6786 25.418 39.33 25.418C39.9849 25.418 40.5109 25.9448 40.5109 26.593Z" fill="#666666"/>
<path d="M53.5153 26.593C53.5153 27.2412 52.9858 27.7681 52.3344 27.7681C51.683 27.7681 51.1534 27.2412 51.1534 26.593C51.1534 25.9448 51.683 25.418 52.3344 25.418C52.9858 25.418 53.5153 25.9448 53.5153 26.593Z" fill="#666666"/>
<path d="M66.1887 26.593C66.1887 27.2412 65.6592 27.7681 65.0077 27.7681C64.3563 27.7681 63.8268 27.2412 63.8268 26.593C63.8268 25.9448 64.3563 25.418 65.0077 25.418C65.6592 25.418 66.1887 25.9448 66.1887 26.593Z" fill="#666666"/>
<path d="M79.0292 26.593C79.0292 27.2412 78.4997 27.7681 77.8483 27.7681C77.1969 27.7681 76.6674 27.2412 76.6674 26.593C76.6674 25.9448 77.1969 25.418 77.8483 25.418C78.5032 25.418 79.0292 25.9448 79.0292 26.593Z" fill="#666666"/>
<path d="M91.6365 26.593C91.6365 27.2412 91.107 27.7681 90.4556 27.7681C89.8042 27.7681 89.2747 27.2412 89.2747 26.593C89.2747 25.9448 89.8042 25.418 90.4556 25.418C91.107 25.418 91.6365 25.9448 91.6365 26.593Z" fill="#666666"/>
<path d="M104.637 26.593C104.637 27.2412 104.108 27.7681 103.456 27.7681C102.805 27.7681 102.275 27.2412 102.275 26.593C102.275 25.9448 102.805 25.418 103.456 25.418C104.111 25.418 104.637 25.9448 104.637 26.593Z" fill="#666666"/>
<path d="M117.325 26.593C117.325 27.2412 116.795 27.7681 116.144 27.7681C115.492 27.7681 114.963 27.2412 114.963 26.593C114.963 25.9448 115.492 25.418 116.144 25.418C116.795 25.418 117.325 25.9448 117.325 26.593Z" fill="#666666"/>
<path d="M130.169 26.593C130.169 27.2412 129.639 27.7681 128.988 27.7681C128.336 27.7681 127.807 27.2412 127.807 26.593C127.807 25.9448 128.336 25.418 128.988 25.418C129.639 25.418 130.169 25.9448 130.169 26.593Z" fill="#666666"/>
<path d="M142.773 26.593C142.773 27.2412 142.243 27.7681 141.592 27.7681C140.94 27.7681 140.411 27.2412 140.411 26.593C140.411 25.9448 140.94 25.418 141.592 25.418C142.243 25.418 142.773 25.9448 142.773 26.593Z" fill="#666666"/>
<path d="M155.777 26.593C155.777 27.2412 155.247 27.7681 154.596 27.7681C153.944 27.7681 153.415 27.2412 153.415 26.593C153.415 25.9448 153.944 25.418 154.596 25.418C155.247 25.418 155.777 25.9448 155.777 26.593Z" fill="#666666"/>
<path d="M168.328 26.593C168.328 27.2412 167.799 27.7681 167.147 27.7681C166.496 27.7681 165.966 27.2412 165.966 26.593C165.966 25.9448 166.496 25.418 167.147 25.418C167.799 25.418 168.328 25.9448 168.328 26.593Z" fill="#666666"/>
<path d="M181.172 26.593C181.172 27.2412 180.643 27.7681 179.991 27.7681C179.34 27.7681 178.81 27.2412 178.81 26.593C178.81 25.9448 179.34 25.418 179.991 25.418C180.643 25.418 181.172 25.9448 181.172 26.593Z" fill="#666666"/>
<path d="M193.78 26.593C193.78 27.2412 193.25 27.7681 192.599 27.7681C191.947 27.7681 191.418 27.2412 191.418 26.593C191.418 25.9448 191.947 25.418 192.599 25.418C193.25 25.418 193.78 25.9448 193.78 26.593Z" fill="#666666"/>
<path d="M206.78 26.593C206.78 27.2412 206.251 27.7681 205.6 27.7681C204.948 27.7681 204.419 27.2412 204.419 26.593C204.419 25.9448 204.948 25.418 205.6 25.418C206.251 25.418 206.78 25.9448 206.78 26.593Z" fill="#666666"/>
<path d="M219.548 26.593C219.548 27.2412 219.018 27.7681 218.367 27.7681C217.716 27.7681 217.186 27.2412 217.186 26.593C217.186 25.9448 217.716 25.418 218.367 25.418C219.018 25.418 219.548 25.9448 219.548 26.593Z" fill="#666666"/>
<path d="M232.392 26.593C232.392 27.2412 231.862 27.7681 231.211 27.7681C230.56 27.7681 230.03 27.2412 230.03 26.593C230.03 25.9448 230.56 25.418 231.211 25.418C231.862 25.418 232.392 25.9448 232.392 26.593Z" fill="#666666"/>
<path d="M244.999 26.593C244.999 27.2412 244.47 27.7681 243.818 27.7681C243.167 27.7681 242.637 27.2412 242.637 26.593C242.637 25.9448 243.167 25.418 243.818 25.418C244.47 25.418 244.999 25.9448 244.999 26.593Z" fill="#666666"/>
<path d="M258 26.593C258 27.2412 257.471 27.7681 256.819 27.7681C256.168 27.7681 255.638 27.2412 255.638 26.593C255.638 25.9448 256.168 25.418 256.819 25.418C257.471 25.418 258 25.9448 258 26.593Z" fill="#666666"/>
<path d="M15.0632 39.3384C15.0632 39.9866 14.5337 40.5134 13.8822 40.5134C13.2308 40.5134 12.7013 39.9866 12.7013 39.3384C12.7013 38.6902 13.2308 38.1633 13.8822 38.1633C14.5337 38.1633 15.0632 38.6867 15.0632 39.3384Z" fill="#666666"/>
<path d="M2.36189 39.3384C2.36189 39.9866 1.83238 40.5134 1.18095 40.5134C0.529509 40.5134 0 39.9866 0 39.3384C0 38.6902 0.529509 38.1633 1.18095 38.1633C1.83238 38.1633 2.36189 38.6867 2.36189 39.3384Z" fill="#666666"/>
<path d="M27.9073 39.3384C27.9073 39.9866 27.3778 40.5134 26.7264 40.5134C26.0749 40.5134 25.5454 39.9866 25.5454 39.3384C25.5454 38.6902 26.0749 38.1633 26.7264 38.1633C27.3778 38.1633 27.9073 38.6867 27.9073 39.3384Z" fill="#666666"/>
<path d="M40.5109 39.3384C40.5109 39.9866 39.9814 40.5134 39.33 40.5134C38.6786 40.5134 38.149 39.9866 38.149 39.3384C38.149 38.6902 38.6786 38.1633 39.33 38.1633C39.9849 38.1633 40.5109 38.6867 40.5109 39.3384Z" fill="#666666"/>
<path d="M53.5153 39.3384C53.5153 39.9866 52.9858 40.5134 52.3344 40.5134C51.683 40.5134 51.1534 39.9866 51.1534 39.3384C51.1534 38.6902 51.683 38.1633 52.3344 38.1633C52.9858 38.1633 53.5153 38.6867 53.5153 39.3384Z" fill="#666666"/>
<path d="M66.1887 39.3384C66.1887 39.9866 65.6592 40.5134 65.0077 40.5134C64.3563 40.5134 63.8268 39.9866 63.8268 39.3384C63.8268 38.6902 64.3563 38.1633 65.0077 38.1633C65.6592 38.1633 66.1887 38.6867 66.1887 39.3384Z" fill="#666666"/>
<path d="M79.0292 39.3384C79.0292 39.9866 78.4997 40.5134 77.8483 40.5134C77.1969 40.5134 76.6674 39.9866 76.6674 39.3384C76.6674 38.6902 77.1969 38.1633 77.8483 38.1633C78.5032 38.1633 79.0292 38.6867 79.0292 39.3384Z" fill="#666666"/>
<path d="M91.6365 39.3384C91.6365 39.9866 91.107 40.5134 90.4556 40.5134C89.8042 40.5134 89.2747 39.9866 89.2747 39.3384C89.2747 38.6902 89.8042 38.1633 90.4556 38.1633C91.107 38.1633 91.6365 38.6867 91.6365 39.3384Z" fill="#666666"/>
<path d="M104.637 39.3384C104.637 39.9866 104.108 40.5134 103.456 40.5134C102.805 40.5134 102.275 39.9866 102.275 39.3384C102.275 38.6902 102.805 38.1633 103.456 38.1633C104.111 38.1633 104.637 38.6867 104.637 39.3384Z" fill="#666666"/>
<path d="M117.325 39.3384C117.325 39.9866 116.795 40.5134 116.144 40.5134C115.492 40.5134 114.963 39.9866 114.963 39.3384C114.963 38.6902 115.492 38.1633 116.144 38.1633C116.795 38.1633 117.325 38.6867 117.325 39.3384Z" fill="#666666"/>
<path d="M130.169 39.3384C130.169 39.9866 129.639 40.5134 128.988 40.5134C128.336 40.5134 127.807 39.9866 127.807 39.3384C127.807 38.6902 128.336 38.1633 128.988 38.1633C129.639 38.1633 130.169 38.6867 130.169 39.3384Z" fill="#666666"/>
<path d="M142.773 39.3384C142.773 39.9866 142.243 40.5134 141.592 40.5134C140.94 40.5134 140.411 39.9866 140.411 39.3384C140.411 38.6902 140.94 38.1633 141.592 38.1633C142.243 38.1633 142.773 38.6867 142.773 39.3384Z" fill="#666666"/>
<path d="M155.777 39.3384C155.777 39.9866 155.247 40.5134 154.596 40.5134C153.944 40.5134 153.415 39.9866 153.415 39.3384C153.415 38.6902 153.944 38.1633 154.596 38.1633C155.247 38.1633 155.777 38.6867 155.777 39.3384Z" fill="#666666"/>
<path d="M168.328 39.3384C168.328 39.9866 167.799 40.5134 167.147 40.5134C166.496 40.5134 165.966 39.9866 165.966 39.3384C165.966 38.6902 166.496 38.1633 167.147 38.1633C167.799 38.1633 168.328 38.6867 168.328 39.3384Z" fill="#666666"/>
<path d="M181.172 39.3384C181.172 39.9866 180.643 40.5134 179.991 40.5134C179.34 40.5134 178.81 39.9866 178.81 39.3384C178.81 38.6902 179.34 38.1633 179.991 38.1633C180.643 38.1633 181.172 38.6867 181.172 39.3384Z" fill="#666666"/>
<path d="M193.78 39.3384C193.78 39.9866 193.25 40.5134 192.599 40.5134C191.947 40.5134 191.418 39.9866 191.418 39.3384C191.418 38.6902 191.947 38.1633 192.599 38.1633C193.25 38.1633 193.78 38.6867 193.78 39.3384Z" fill="#666666"/>
<path d="M206.78 39.3384C206.78 39.9866 206.251 40.5134 205.6 40.5134C204.948 40.5134 204.419 39.9866 204.419 39.3384C204.419 38.6902 204.948 38.1633 205.6 38.1633C206.251 38.1633 206.78 38.6867 206.78 39.3384Z" fill="#666666"/>
<path d="M219.548 39.3384C219.548 39.9866 219.018 40.5134 218.367 40.5134C217.716 40.5134 217.186 39.9866 217.186 39.3384C217.186 38.6902 217.716 38.1633 218.367 38.1633C219.018 38.1633 219.548 38.6867 219.548 39.3384Z" fill="#666666"/>
<path d="M232.392 39.3384C232.392 39.9866 231.862 40.5134 231.211 40.5134C230.56 40.5134 230.03 39.9866 230.03 39.3384C230.03 38.6902 230.56 38.1633 231.211 38.1633C231.862 38.1633 232.392 38.6867 232.392 39.3384Z" fill="#666666"/>
<path d="M244.999 39.3384C244.999 39.9866 244.47 40.5134 243.818 40.5134C243.167 40.5134 242.637 39.9866 242.637 39.3384C242.637 38.6902 243.167 38.1633 243.818 38.1633C244.47 38.1633 244.999 38.6867 244.999 39.3384Z" fill="#666666"/>
<path d="M258 39.3384C258 39.9866 257.471 40.5134 256.819 40.5134C256.168 40.5134 255.638 39.9866 255.638 39.3384C255.638 38.6902 256.168 38.1633 256.819 38.1633C257.471 38.1633 258 38.6867 258 39.3384Z" fill="#666666"/>
<path d="M15.0632 51.886C15.0632 52.5342 14.5337 53.061 13.8822 53.061C13.2308 53.061 12.7013 52.5342 12.7013 51.886C12.7013 51.2378 13.2308 50.7109 13.8822 50.7109C14.5337 50.7109 15.0632 51.2343 15.0632 51.886Z" fill="#666666"/>
<path d="M2.36189 51.886C2.36189 52.5342 1.83238 53.061 1.18095 53.061C0.529509 53.061 0 52.5342 0 51.886C0 51.2378 0.529509 50.7109 1.18095 50.7109C1.83238 50.7109 2.36189 51.2343 2.36189 51.886Z" fill="#666666"/>
<path d="M27.9073 51.886C27.9073 52.5342 27.3778 53.061 26.7264 53.061C26.0749 53.061 25.5454 52.5342 25.5454 51.886C25.5454 51.2378 26.0749 50.7109 26.7264 50.7109C27.3778 50.7109 27.9073 51.2343 27.9073 51.886Z" fill="#666666"/>
<path d="M40.5109 51.886C40.5109 52.5342 39.9814 53.061 39.33 53.061C38.6786 53.061 38.149 52.5342 38.149 51.886C38.149 51.2378 38.6786 50.7109 39.33 50.7109C39.9849 50.7109 40.5109 51.2343 40.5109 51.886Z" fill="#666666"/>
<path d="M53.5153 51.886C53.5153 52.5342 52.9858 53.061 52.3344 53.061C51.683 53.061 51.1534 52.5342 51.1534 51.886C51.1534 51.2378 51.683 50.7109 52.3344 50.7109C52.9858 50.7109 53.5153 51.2343 53.5153 51.886Z" fill="#666666"/>
<path d="M66.1887 51.886C66.1887 52.5342 65.6592 53.061 65.0077 53.061C64.3563 53.061 63.8268 52.5342 63.8268 51.886C63.8268 51.2378 64.3563 50.7109 65.0077 50.7109C65.6592 50.7109 66.1887 51.2343 66.1887 51.886Z" fill="#666666"/>
<path d="M79.0292 51.886C79.0292 52.5342 78.4997 53.061 77.8483 53.061C77.1969 53.061 76.6674 52.5342 76.6674 51.886C76.6674 51.2378 77.1969 50.7109 77.8483 50.7109C78.5032 50.7109 79.0292 51.2343 79.0292 51.886Z" fill="#666666"/>
<path d="M91.6365 51.886C91.6365 52.5342 91.107 53.061 90.4556 53.061C89.8042 53.061 89.2747 52.5342 89.2747 51.886C89.2747 51.2378 89.8042 50.7109 90.4556 50.7109C91.107 50.7109 91.6365 51.2343 91.6365 51.886Z" fill="#666666"/>
<path d="M104.637 51.886C104.637 52.5342 104.108 53.061 103.456 53.061C102.805 53.061 102.275 52.5342 102.275 51.886C102.275 51.2378 102.805 50.7109 103.456 50.7109C104.111 50.7109 104.637 51.2343 104.637 51.886Z" fill="#666666"/>
<path d="M117.325 51.886C117.325 52.5342 116.795 53.061 116.144 53.061C115.492 53.061 114.963 52.5342 114.963 51.886C114.963 51.2378 115.492 50.7109 116.144 50.7109C116.795 50.7109 117.325 51.2343 117.325 51.886Z" fill="#666666"/>
<path d="M130.169 51.886C130.169 52.5342 129.639 53.061 128.988 53.061C128.336 53.061 127.807 52.5342 127.807 51.886C127.807 51.2378 128.336 50.7109 128.988 50.7109C129.639 50.7109 130.169 51.2343 130.169 51.886Z" fill="#666666"/>
<path d="M142.773 51.886C142.773 52.5342 142.243 53.061 141.592 53.061C140.94 53.061 140.411 52.5342 140.411 51.886C140.411 51.2378 140.94 50.7109 141.592 50.7109C142.243 50.7109 142.773 51.2343 142.773 51.886Z" fill="#666666"/>
<path d="M155.777 51.886C155.777 52.5342 155.247 53.061 154.596 53.061C153.944 53.061 153.415 52.5342 153.415 51.886C153.415 51.2378 153.944 50.7109 154.596 50.7109C155.247 50.7109 155.777 51.2343 155.777 51.886Z" fill="#666666"/>
<path d="M168.328 51.886C168.328 52.5342 167.799 53.061 167.147 53.061C166.496 53.061 165.966 52.5342 165.966 51.886C165.966 51.2378 166.496 50.7109 167.147 50.7109C167.799 50.7109 168.328 51.2343 168.328 51.886Z" fill="#666666"/>
<path d="M181.172 51.886C181.172 52.5342 180.643 53.061 179.991 53.061C179.34 53.061 178.81 52.5342 178.81 51.886C178.81 51.2378 179.34 50.7109 179.991 50.7109C180.643 50.7109 181.172 51.2343 181.172 51.886Z" fill="#666666"/>
<path d="M193.78 51.886C193.78 52.5342 193.25 53.061 192.599 53.061C191.947 53.061 191.418 52.5342 191.418 51.886C191.418 51.2378 191.947 50.7109 192.599 50.7109C193.25 50.7109 193.78 51.2343 193.78 51.886Z" fill="#666666"/>
<path d="M206.78 51.886C206.78 52.5342 206.251 53.061 205.6 53.061C204.948 53.061 204.419 52.5342 204.419 51.886C204.419 51.2378 204.948 50.7109 205.6 50.7109C206.251 50.7109 206.78 51.2343 206.78 51.886Z" fill="#666666"/>
<path d="M219.548 51.886C219.548 52.5342 219.018 53.061 218.367 53.061C217.716 53.061 217.186 52.5342 217.186 51.886C217.186 51.2378 217.716 50.7109 218.367 50.7109C219.018 50.7109 219.548 51.2343 219.548 51.886Z" fill="#666666"/>
<path d="M232.392 51.886C232.392 52.5342 231.862 53.061 231.211 53.061C230.56 53.061 230.03 52.5342 230.03 51.886C230.03 51.2378 230.56 50.7109 231.211 50.7109C231.862 50.7109 232.392 51.2343 232.392 51.886Z" fill="#666666"/>
<path d="M244.999 51.886C244.999 52.5342 244.47 53.061 243.818 53.061C243.167 53.061 242.637 52.5342 242.637 51.886C242.637 51.2378 243.167 50.7109 243.818 50.7109C244.47 50.7109 244.999 51.2343 244.999 51.886Z" fill="#666666"/>
<path d="M258 51.886C258 52.5342 257.471 53.061 256.819 53.061C256.168 53.061 255.638 52.5342 255.638 51.886C255.638 51.2378 256.168 50.7109 256.819 50.7109C257.471 50.7109 258 51.2343 258 51.886Z" fill="#666666"/>
<path d="M15.0632 64.6211C15.0632 65.2693 14.5337 65.7962 13.8822 65.7962C13.2308 65.7962 12.7013 65.2693 12.7013 64.6211C12.7013 63.9729 13.2308 63.446 13.8822 63.446C14.5337 63.446 15.0632 63.9694 15.0632 64.6211Z" fill="#666666"/>
<path d="M2.36189 64.6211C2.36189 65.2693 1.83238 65.7962 1.18095 65.7962C0.529509 65.7962 0 65.2693 0 64.6211C0 63.9729 0.529509 63.446 1.18095 63.446C1.83238 63.446 2.36189 63.9694 2.36189 64.6211Z" fill="#666666"/>
<path d="M27.9073 64.6211C27.9073 65.2693 27.3778 65.7962 26.7264 65.7962C26.0749 65.7962 25.5454 65.2693 25.5454 64.6211C25.5454 63.9729 26.0749 63.446 26.7264 63.446C27.3778 63.446 27.9073 63.9694 27.9073 64.6211Z" fill="#666666"/>
<path d="M40.5109 64.6211C40.5109 65.2693 39.9814 65.7962 39.33 65.7962C38.6786 65.7962 38.149 65.2693 38.149 64.6211C38.149 63.9729 38.6786 63.446 39.33 63.446C39.9849 63.446 40.5109 63.9694 40.5109 64.6211Z" fill="#666666"/>
<path d="M53.5153 64.6211C53.5153 65.2693 52.9858 65.7962 52.3344 65.7962C51.683 65.7962 51.1534 65.2693 51.1534 64.6211C51.1534 63.9729 51.683 63.446 52.3344 63.446C52.9858 63.446 53.5153 63.9694 53.5153 64.6211Z" fill="#666666"/>
<path d="M66.1887 64.6211C66.1887 65.2693 65.6592 65.7962 65.0077 65.7962C64.3563 65.7962 63.8268 65.2693 63.8268 64.6211C63.8268 63.9729 64.3563 63.446 65.0077 63.446C65.6592 63.446 66.1887 63.9694 66.1887 64.6211Z" fill="#666666"/>
<path d="M79.0292 64.6211C79.0292 65.2693 78.4997 65.7962 77.8483 65.7962C77.1969 65.7962 76.6674 65.2693 76.6674 64.6211C76.6674 63.9729 77.1969 63.446 77.8483 63.446C78.5032 63.446 79.0292 63.9694 79.0292 64.6211Z" fill="#666666"/>
<path d="M91.6365 64.6211C91.6365 65.2693 91.107 65.7962 90.4556 65.7962C89.8042 65.7962 89.2747 65.2693 89.2747 64.6211C89.2747 63.9729 89.8042 63.446 90.4556 63.446C91.107 63.446 91.6365 63.9694 91.6365 64.6211Z" fill="#666666"/>
<path d="M104.637 64.6211C104.637 65.2693 104.108 65.7962 103.456 65.7962C102.805 65.7962 102.275 65.2693 102.275 64.6211C102.275 63.9729 102.805 63.446 103.456 63.446C104.111 63.446 104.637 63.9694 104.637 64.6211Z" fill="#666666"/>
<path d="M117.325 64.6211C117.325 65.2693 116.795 65.7962 116.144 65.7962C115.492 65.7962 114.963 65.2693 114.963 64.6211C114.963 63.9729 115.492 63.446 116.144 63.446C116.795 63.446 117.325 63.9694 117.325 64.6211Z" fill="#666666"/>
<path d="M130.169 64.6211C130.169 65.2693 129.639 65.7962 128.988 65.7962C128.336 65.7962 127.807 65.2693 127.807 64.6211C127.807 63.9729 128.336 63.446 128.988 63.446C129.639 63.446 130.169 63.9694 130.169 64.6211Z" fill="#666666"/>
<path d="M142.773 64.6211C142.773 65.2693 142.243 65.7962 141.592 65.7962C140.94 65.7962 140.411 65.2693 140.411 64.6211C140.411 63.9729 140.94 63.446 141.592 63.446C142.243 63.446 142.773 63.9694 142.773 64.6211Z" fill="#666666"/>
<path d="M155.777 64.6211C155.777 65.2693 155.247 65.7962 154.596 65.7962C153.944 65.7962 153.415 65.2693 153.415 64.6211C153.415 63.9729 153.944 63.446 154.596 63.446C155.247 63.446 155.777 63.9694 155.777 64.6211Z" fill="#666666"/>
<path d="M168.328 64.6211C168.328 65.2693 167.799 65.7962 167.147 65.7962C166.496 65.7962 165.966 65.2693 165.966 64.6211C165.966 63.9729 166.496 63.446 167.147 63.446C167.799 63.446 168.328 63.9694 168.328 64.6211Z" fill="#666666"/>
<path d="M181.172 64.6211C181.172 65.2693 180.643 65.7962 179.991 65.7962C179.34 65.7962 178.81 65.2693 178.81 64.6211C178.81 63.9729 179.34 63.446 179.991 63.446C180.643 63.446 181.172 63.9694 181.172 64.6211Z" fill="#666666"/>
<path d="M193.78 64.6211C193.78 65.2693 193.25 65.7962 192.599 65.7962C191.947 65.7962 191.418 65.2693 191.418 64.6211C191.418 63.9729 191.947 63.446 192.599 63.446C193.25 63.446 193.78 63.9694 193.78 64.6211Z" fill="#666666"/>
<path d="M206.78 64.6211C206.78 65.2693 206.251 65.7962 205.6 65.7962C204.948 65.7962 204.419 65.2693 204.419 64.6211C204.419 63.9729 204.948 63.446 205.6 63.446C206.251 63.446 206.78 63.9694 206.78 64.6211Z" fill="#666666"/>
<path d="M219.548 64.6211C219.548 65.2693 219.018 65.7962 218.367 65.7962C217.716 65.7962 217.186 65.2693 217.186 64.6211C217.186 63.9729 217.716 63.446 218.367 63.446C219.018 63.446 219.548 63.9694 219.548 64.6211Z" fill="#666666"/>
<path d="M232.392 64.6211C232.392 65.2693 231.862 65.7962 231.211 65.7962C230.56 65.7962 230.03 65.2693 230.03 64.6211C230.03 63.9729 230.56 63.446 231.211 63.446C231.862 63.446 232.392 63.9694 232.392 64.6211Z" fill="#666666"/>
<path d="M244.999 64.6211C244.999 65.2693 244.47 65.7962 243.818 65.7962C243.167 65.7962 242.637 65.2693 242.637 64.6211C242.637 63.9729 243.167 63.446 243.818 63.446C244.47 63.446 244.999 63.9694 244.999 64.6211Z" fill="#666666"/>
<path d="M258 64.6211C258 65.2693 257.471 65.7962 256.819 65.7962C256.168 65.7962 255.638 65.2693 255.638 64.6211C255.638 63.9729 256.168 63.446 256.819 63.446C257.471 63.446 258 63.9694 258 64.6211Z" fill="#666666"/>
<path d="M15.0632 77.3281C15.0632 77.9763 14.5337 78.5032 13.8822 78.5032C13.2308 78.5032 12.7013 77.9763 12.7013 77.3281C12.7013 76.6799 13.2308 76.1531 13.8822 76.1531C14.5337 76.1531 15.0632 76.6799 15.0632 77.3281Z" fill="#666666"/>
<path d="M2.36189 77.3281C2.36189 77.9763 1.83238 78.5032 1.18095 78.5032C0.529509 78.5032 0 77.9763 0 77.3281C0 76.6799 0.529509 76.1531 1.18095 76.1531C1.83238 76.1531 2.36189 76.6799 2.36189 77.3281Z" fill="#666666"/>
<path d="M27.9073 77.3281C27.9073 77.9763 27.3778 78.5032 26.7264 78.5032C26.0749 78.5032 25.5454 77.9763 25.5454 77.3281C25.5454 76.6799 26.0749 76.1531 26.7264 76.1531C27.3778 76.1531 27.9073 76.6799 27.9073 77.3281Z" fill="#666666"/>
<path d="M40.5109 77.3281C40.5109 77.9763 39.9814 78.5032 39.33 78.5032C38.6786 78.5032 38.149 77.9763 38.149 77.3281C38.149 76.6799 38.6786 76.1531 39.33 76.1531C39.9849 76.1531 40.5109 76.6799 40.5109 77.3281Z" fill="#666666"/>
<path d="M53.5153 77.3281C53.5153 77.9763 52.9858 78.5032 52.3344 78.5032C51.683 78.5032 51.1534 77.9763 51.1534 77.3281C51.1534 76.6799 51.683 76.1531 52.3344 76.1531C52.9858 76.1531 53.5153 76.6799 53.5153 77.3281Z" fill="#666666"/>
<path d="M66.1887 77.3281C66.1887 77.9763 65.6592 78.5032 65.0077 78.5032C64.3563 78.5032 63.8268 77.9763 63.8268 77.3281C63.8268 76.6799 64.3563 76.1531 65.0077 76.1531C65.6592 76.1531 66.1887 76.6799 66.1887 77.3281Z" fill="#666666"/>
<path d="M79.0292 77.3281C79.0292 77.9763 78.4997 78.5032 77.8483 78.5032C77.1969 78.5032 76.6674 77.9763 76.6674 77.3281C76.6674 76.6799 77.1969 76.1531 77.8483 76.1531C78.5032 76.1531 79.0292 76.6799 79.0292 77.3281Z" fill="#666666"/>
<path d="M91.6365 77.3281C91.6365 77.9763 91.107 78.5032 90.4556 78.5032C89.8042 78.5032 89.2747 77.9763 89.2747 77.3281C89.2747 76.6799 89.8042 76.1531 90.4556 76.1531C91.107 76.1531 91.6365 76.6799 91.6365 77.3281Z" fill="#666666"/>
<path d="M104.637 77.3281C104.637 77.9763 104.108 78.5032 103.456 78.5032C102.805 78.5032 102.275 77.9763 102.275 77.3281C102.275 76.6799 102.805 76.1531 103.456 76.1531C104.111 76.1531 104.637 76.6799 104.637 77.3281Z" fill="#666666"/>
<path d="M117.325 77.3281C117.325 77.9763 116.795 78.5032 116.144 78.5032C115.492 78.5032 114.963 77.9763 114.963 77.3281C114.963 76.6799 115.492 76.1531 116.144 76.1531C116.795 76.1531 117.325 76.6799 117.325 77.3281Z" fill="#666666"/>
<path d="M130.169 77.3281C130.169 77.9763 129.639 78.5032 128.988 78.5032C128.336 78.5032 127.807 77.9763 127.807 77.3281C127.807 76.6799 128.336 76.1531 128.988 76.1531C129.639 76.1531 130.169 76.6799 130.169 77.3281Z" fill="#666666"/>
<path d="M142.773 77.3281C142.773 77.9763 142.243 78.5032 141.592 78.5032C140.94 78.5032 140.411 77.9763 140.411 77.3281C140.411 76.6799 140.94 76.1531 141.592 76.1531C142.243 76.1531 142.773 76.6799 142.773 77.3281Z" fill="#666666"/>
<path d="M155.777 77.3281C155.777 77.9763 155.247 78.5032 154.596 78.5032C153.944 78.5032 153.415 77.9763 153.415 77.3281C153.415 76.6799 153.944 76.1531 154.596 76.1531C155.247 76.1531 155.777 76.6799 155.777 77.3281Z" fill="#666666"/>
<path d="M168.328 77.3281C168.328 77.9763 167.799 78.5032 167.147 78.5032C166.496 78.5032 165.966 77.9763 165.966 77.3281C165.966 76.6799 166.496 76.1531 167.147 76.1531C167.799 76.1531 168.328 76.6799 168.328 77.3281Z" fill="#666666"/>
<path d="M181.172 77.3281C181.172 77.9763 180.643 78.5032 179.991 78.5032C179.34 78.5032 178.81 77.9763 178.81 77.3281C178.81 76.6799 179.34 76.1531 179.991 76.1531C180.643 76.1531 181.172 76.6799 181.172 77.3281Z" fill="#666666"/>
<path d="M193.78 77.3281C193.78 77.9763 193.25 78.5032 192.599 78.5032C191.947 78.5032 191.418 77.9763 191.418 77.3281C191.418 76.6799 191.947 76.1531 192.599 76.1531C193.25 76.1531 193.78 76.6799 193.78 77.3281Z" fill="#666666"/>
<path d="M206.78 77.3281C206.78 77.9763 206.251 78.5032 205.6 78.5032C204.948 78.5032 204.419 77.9763 204.419 77.3281C204.419 76.6799 204.948 76.1531 205.6 76.1531C206.251 76.1531 206.78 76.6799 206.78 77.3281Z" fill="#666666"/>
<path d="M219.548 77.3281C219.548 77.9763 219.018 78.5032 218.367 78.5032C217.716 78.5032 217.186 77.9763 217.186 77.3281C217.186 76.6799 217.716 76.1531 218.367 76.1531C219.018 76.1531 219.548 76.6799 219.548 77.3281Z" fill="#666666"/>
<path d="M232.392 77.3281C232.392 77.9763 231.862 78.5032 231.211 78.5032C230.56 78.5032 230.03 77.9763 230.03 77.3281C230.03 76.6799 230.56 76.1531 231.211 76.1531C231.862 76.1531 232.392 76.6799 232.392 77.3281Z" fill="#666666"/>
<path d="M244.999 77.3281C244.999 77.9763 244.47 78.5032 243.818 78.5032C243.167 78.5032 242.637 77.9763 242.637 77.3281C242.637 76.6799 243.167 76.1531 243.818 76.1531C244.47 76.1531 244.999 76.6799 244.999 77.3281Z" fill="#666666"/>
<path d="M258 77.3281C258 77.9763 257.471 78.5032 256.819 78.5032C256.168 78.5032 255.638 77.9763 255.638 77.3281C255.638 76.6799 256.168 76.1531 256.819 76.1531C257.471 76.1531 258 76.6799 258 77.3281Z" fill="#666666"/>
<path d="M15.0632 90.136C15.0632 90.7842 14.5337 91.311 13.8822 91.311C13.2308 91.311 12.7013 90.7842 12.7013 90.136C12.7013 89.4878 13.2308 88.9609 13.8822 88.9609C14.5337 88.9609 15.0632 89.4878 15.0632 90.136Z" fill="#666666"/>
<path d="M2.36189 90.136C2.36189 90.7842 1.83238 91.311 1.18095 91.311C0.529509 91.311 0 90.7842 0 90.136C0 89.4878 0.529509 88.9609 1.18095 88.9609C1.83238 88.9609 2.36189 89.4878 2.36189 90.136Z" fill="#666666"/>
<path d="M27.9073 90.136C27.9073 90.7842 27.3778 91.311 26.7264 91.311C26.0749 91.311 25.5454 90.7842 25.5454 90.136C25.5454 89.4878 26.0749 88.9609 26.7264 88.9609C27.3778 88.9609 27.9073 89.4878 27.9073 90.136Z" fill="#666666"/>
<path d="M40.5109 90.136C40.5109 90.7842 39.9814 91.311 39.33 91.311C38.6786 91.311 38.149 90.7842 38.149 90.136C38.149 89.4878 38.6786 88.9609 39.33 88.9609C39.9849 88.9609 40.5109 89.4878 40.5109 90.136Z" fill="#666666"/>
<path d="M53.5153 90.136C53.5153 90.7842 52.9858 91.311 52.3344 91.311C51.683 91.311 51.1534 90.7842 51.1534 90.136C51.1534 89.4878 51.683 88.9609 52.3344 88.9609C52.9858 88.9609 53.5153 89.4878 53.5153 90.136Z" fill="#666666"/>
<path d="M66.1887 90.136C66.1887 90.7842 65.6592 91.311 65.0077 91.311C64.3563 91.311 63.8268 90.7842 63.8268 90.136C63.8268 89.4878 64.3563 88.9609 65.0077 88.9609C65.6592 88.9609 66.1887 89.4878 66.1887 90.136Z" fill="#666666"/>
<path d="M79.0292 90.136C79.0292 90.7842 78.4997 91.311 77.8483 91.311C77.1969 91.311 76.6674 90.7842 76.6674 90.136C76.6674 89.4878 77.1969 88.9609 77.8483 88.9609C78.5032 88.9609 79.0292 89.4878 79.0292 90.136Z" fill="#666666"/>
<path d="M91.6365 90.136C91.6365 90.7842 91.107 91.311 90.4556 91.311C89.8042 91.311 89.2747 90.7842 89.2747 90.136C89.2747 89.4878 89.8042 88.9609 90.4556 88.9609C91.107 88.9609 91.6365 89.4878 91.6365 90.136Z" fill="#666666"/>
<path d="M104.637 90.136C104.637 90.7842 104.108 91.311 103.456 91.311C102.805 91.311 102.275 90.7842 102.275 90.136C102.275 89.4878 102.805 88.9609 103.456 88.9609C104.111 88.9609 104.637 89.4878 104.637 90.136Z" fill="#666666"/>
<path d="M117.325 90.136C117.325 90.7842 116.795 91.311 116.144 91.311C115.492 91.311 114.963 90.7842 114.963 90.136C114.963 89.4878 115.492 88.9609 116.144 88.9609C116.795 88.9609 117.325 89.4878 117.325 90.136Z" fill="#666666"/>
<path d="M130.169 90.136C130.169 90.7842 129.639 91.311 128.988 91.311C128.336 91.311 127.807 90.7842 127.807 90.136C127.807 89.4878 128.336 88.9609 128.988 88.9609C129.639 88.9609 130.169 89.4878 130.169 90.136Z" fill="#666666"/>
<path d="M142.773 90.136C142.773 90.7842 142.243 91.311 141.592 91.311C140.94 91.311 140.411 90.7842 140.411 90.136C140.411 89.4878 140.94 88.9609 141.592 88.9609C142.243 88.9609 142.773 89.4878 142.773 90.136Z" fill="#666666"/>
<path d="M155.777 90.136C155.777 90.7842 155.247 91.311 154.596 91.311C153.944 91.311 153.415 90.7842 153.415 90.136C153.415 89.4878 153.944 88.9609 154.596 88.9609C155.247 88.9609 155.777 89.4878 155.777 90.136Z" fill="#666666"/>
<path d="M168.328 90.136C168.328 90.7842 167.799 91.311 167.147 91.311C166.496 91.311 165.966 90.7842 165.966 90.136C165.966 89.4878 166.496 88.9609 167.147 88.9609C167.799 88.9609 168.328 89.4878 168.328 90.136Z" fill="#666666"/>
<path d="M181.172 90.136C181.172 90.7842 180.643 91.311 179.991 91.311C179.34 91.311 178.81 90.7842 178.81 90.136C178.81 89.4878 179.34 88.9609 179.991 88.9609C180.643 88.9609 181.172 89.4878 181.172 90.136Z" fill="#666666"/>
<path d="M193.78 90.136C193.78 90.7842 193.25 91.311 192.599 91.311C191.947 91.311 191.418 90.7842 191.418 90.136C191.418 89.4878 191.947 88.9609 192.599 88.9609C193.25 88.9609 193.78 89.4878 193.78 90.136Z" fill="#666666"/>
<path d="M206.78 90.136C206.78 90.7842 206.251 91.311 205.6 91.311C204.948 91.311 204.419 90.7842 204.419 90.136C204.419 89.4878 204.948 88.9609 205.6 88.9609C206.251 88.9609 206.78 89.4878 206.78 90.136Z" fill="#666666"/>
<path d="M219.548 90.136C219.548 90.7842 219.018 91.311 218.367 91.311C217.716 91.311 217.186 90.7842 217.186 90.136C217.186 89.4878 217.716 88.9609 218.367 88.9609C219.018 88.9609 219.548 89.4878 219.548 90.136Z" fill="#666666"/>
<path d="M232.392 90.136C232.392 90.7842 231.862 91.311 231.211 91.311C230.56 91.311 230.03 90.7842 230.03 90.136C230.03 89.4878 230.56 88.9609 231.211 88.9609C231.862 88.9609 232.392 89.4878 232.392 90.136Z" fill="#666666"/>
<path d="M244.999 90.136C244.999 90.7842 244.47 91.311 243.818 91.311C243.167 91.311 242.637 90.7842 242.637 90.136C242.637 89.4878 243.167 88.9609 243.818 88.9609C244.47 88.9609 244.999 89.4878 244.999 90.136Z" fill="#666666"/>
<path d="M258 90.136C258 90.7842 257.471 91.311 256.819 91.311C256.168 91.311 255.638 90.7842 255.638 90.136C255.638 89.4878 256.168 88.9609 256.819 88.9609C257.471 88.9609 258 89.4878 258 90.136Z" fill="#666666"/>
</g>
</g>
<defs>
<clipPath id="clip0_194_9314">
<rect width="258" height="97" fill="white"/>
</clipPath>
</defs>
</svg>
